<svg xmlns="http://www.w3.org/2000/svg" xmlns:xlink="http://www.w3.org/1999/xlink" width="300" zoomAndPan="magnify" viewBox="0 0 224.87999 67.499998" height="90" preserveAspectRatio="xMidYMid meet" version="1.2"><defs><clipPath id="8fdb3d7ebd"><path d="M 0.765625 0 L 223.992188 0 L 223.992188 67.003906 L 0.765625 67.003906 Z M 0.765625 0 "/></clipPath><clipPath id="c205de8fb9"><path d="M 30 35 L 36 35 L 36 42 L 30 42 Z M 30 35 "/></clipPath><clipPath id="0293ecb120"><path d="M 28.328125 37.8125 L 33.671875 33.773438 L 37.710938 39.117188 L 32.367188 43.160156 Z M 28.328125 37.8125 "/></clipPath><clipPath id="da16cc5221"><path d="M 28.328125 37.8125 L 33.671875 33.773438 L 37.710938 39.117188 L 32.367188 43.160156 Z M 28.328125 37.8125 "/></clipPath><clipPath id="6264937394"><path d="M 60.328125 15.882812 L 84.894531 15.882812 L 84.894531 27.792969 L 60.328125 27.792969 Z M 60.328125 15.882812 "/></clipPath><clipPath id="d698ae0a13"><path d="M 60.328125 32.976562 L 84.894531 32.976562 L 84.894531 44.886719 L 60.328125 44.886719 Z M 60.328125 32.976562 "/></clipPath><clipPath id="daaab6cdda"><path d="M 60.328125 50.070312 L 84.894531 50.070312 L 84.894531 61.984375 L 60.328125 61.984375 Z M 60.328125 50.070312 "/></clipPath><clipPath id="9dacd31b9c"><path d="M 157 6 L 164 6 L 164 13 L 157 13 Z M 157 6 "/></clipPath><clipPath id="2a961020f8"><path d="M 159.988281 4.667969 L 166.050781 8.988281 L 161.730469 15.050781 L 155.667969 10.730469 Z M 159.988281 4.667969 "/></clipPath><clipPath id="50d51bc2cb"><path d="M 159.988281 4.667969 L 166.050781 8.988281 L 161.730469 15.050781 L 155.667969 10.730469 Z M 159.988281 4.667969 "/></clipPath></defs><g id="3f7fcb4fe7"><g clip-rule="nonzero" clip-path="url(#8fdb3d7ebd)"><path style=" stroke:none;fill-rule:nonzero;fill:#ffffff;fill-opacity:1;" d="M 0.765625 0 L 224.113281 0 L 224.113281 67.003906 L 0.765625 67.003906 Z M 0.765625 0 "/><path style=" stroke:none;fill-rule:nonzero;fill:#edeced;fill-opacity:1;" d="M 0.765625 0 L 224.113281 0 L 224.113281 67.003906 L 0.765625 67.003906 Z M 0.765625 0 "/></g><g clip-rule="nonzero" clip-path="url(#c205de8fb9)"><g clip-rule="nonzero" clip-path="url(#0293ecb120)"><g clip-rule="nonzero" clip-path="url(#da16cc5221)"><path style=" stroke:none;fill-rule:nonzero;fill:#d2ac67;fill-opacity:1;" d="M 35.539062 36.472656 C 33.847656 38.320312 33.777344 38.832031 34.898438 41.070312 C 33.054688 39.378906 32.539062 39.308594 30.304688 40.429688 C 31.996094 38.585938 32.066406 38.070312 30.945312 35.835938 C 32.789062 37.523438 33.304688 37.597656 35.539062 36.472656 Z M 35.539062 36.472656 "/></g></g></g><g clip-rule="nonzero" clip-path="url(#6264937394)"><path style=" stroke:none;fill-rule:nonzero;fill:#d2ac67;fill-opacity:1;" d="M 78.554688 15.882812 L 65.933594 15.882812 C 62.855469 15.882812 60.332031 18.40625 60.332031 21.484375 L 60.332031 22.179688 C 60.332031 25.269531 62.855469 27.792969 65.933594 27.792969 L 78.539062 27.792969 C 81.617188 27.792969 84.140625 25.269531 84.140625 22.191406 L 84.140625 21.496094 C 84.15625 18.40625 81.632812 15.882812 78.554688 15.882812 Z M 78.554688 15.882812 "/></g><path style=" stroke:none;fill-rule:nonzero;fill:#ffffff;fill-opacity:1;" d="M 82.765625 21.835938 C 82.765625 22.148438 82.734375 22.457031 82.675781 22.761719 C 82.613281 23.066406 82.523438 23.363281 82.40625 23.648438 C 82.285156 23.9375 82.140625 24.210938 81.96875 24.46875 C 81.796875 24.726562 81.597656 24.964844 81.378906 25.1875 C 81.160156 25.40625 80.917969 25.601562 80.660156 25.777344 C 80.402344 25.949219 80.128906 26.09375 79.84375 26.214844 C 79.554688 26.332031 79.257812 26.421875 78.953125 26.484375 C 78.648438 26.542969 78.339844 26.574219 78.03125 26.574219 C 77.71875 26.574219 77.410156 26.542969 77.105469 26.484375 C 76.800781 26.421875 76.503906 26.332031 76.21875 26.214844 C 75.929688 26.09375 75.65625 25.949219 75.398438 25.777344 C 75.140625 25.601562 74.902344 25.40625 74.679688 25.1875 C 74.460938 24.964844 74.265625 24.726562 74.089844 24.46875 C 73.917969 24.210938 73.773438 23.9375 73.652344 23.648438 C 73.535156 23.363281 73.445312 23.066406 73.382812 22.761719 C 73.324219 22.457031 73.292969 22.148438 73.292969 21.835938 C 73.292969 21.527344 73.324219 21.21875 73.382812 20.914062 C 73.445312 20.609375 73.535156 20.3125 73.652344 20.023438 C 73.773438 19.738281 73.917969 19.464844 74.089844 19.207031 C 74.265625 18.949219 74.460938 18.707031 74.679688 18.488281 C 74.902344 18.269531 75.140625 18.070312 75.398438 17.898438 C 75.65625 17.726562 75.929688 17.582031 76.21875 17.460938 C 76.503906 17.34375 76.800781 17.253906 77.105469 17.191406 C 77.410156 17.132812 77.71875 17.101562 78.03125 17.101562 C 78.339844 17.101562 78.648438 17.132812 78.953125 17.191406 C 79.257812 17.253906 79.554688 17.34375 79.84375 17.460938 C 80.128906 17.582031 80.402344 17.726562 80.660156 17.898438 C 80.917969 18.070312 81.160156 18.269531 81.378906 18.488281 C 81.597656 18.707031 81.796875 18.949219 81.96875 19.207031 C 82.140625 19.464844 82.285156 19.738281 82.40625 20.023438 C 82.523438 20.3125 82.613281 20.609375 82.675781 20.914062 C 82.734375 21.21875 82.765625 21.527344 82.765625 21.835938 Z M 82.765625 21.835938 "/><g clip-rule="nonzero" clip-path="url(#d698ae0a13)"><path style=" stroke:none;fill-rule:nonzero;fill:#d2ac67;fill-opacity:1;" d="M 78.554688 32.976562 L 65.933594 32.976562 C 62.855469 32.976562 60.332031 35.5 60.332031 38.578125 L 60.332031 39.273438 C 60.332031 42.363281 62.855469 44.886719 65.933594 44.886719 L 78.539062 44.886719 C 81.617188 44.886719 84.140625 42.363281 84.140625 39.285156 L 84.140625 38.59375 C 84.15625 35.5 81.632812 32.976562 78.554688 32.976562 Z M 78.554688 32.976562 "/></g><path style=" stroke:none;fill-rule:nonzero;fill:#ffffff;fill-opacity:1;" d="M 82.765625 38.933594 C 82.765625 39.242188 82.734375 39.550781 82.675781 39.855469 C 82.613281 40.160156 82.523438 40.457031 82.40625 40.746094 C 82.285156 41.03125 82.140625 41.304688 81.96875 41.5625 C 81.796875 41.820312 81.597656 42.0625 81.378906 42.28125 C 81.160156 42.5 80.917969 42.699219 80.660156 42.871094 C 80.402344 43.042969 80.128906 43.1875 79.84375 43.308594 C 79.554688 43.425781 79.257812 43.515625 78.953125 43.578125 C 78.648438 43.636719 78.339844 43.667969 78.03125 43.667969 C 77.71875 43.667969 77.410156 43.636719 77.105469 43.578125 C 76.800781 43.515625 76.503906 43.425781 76.21875 43.308594 C 75.929688 43.1875 75.65625 43.042969 75.398438 42.871094 C 75.140625 42.699219 74.902344 42.5 74.679688 42.28125 C 74.460938 42.0625 74.265625 41.820312 74.089844 41.5625 C 73.917969 41.304688 73.773438 41.03125 73.652344 40.746094 C 73.535156 40.457031 73.445312 40.160156 73.382812 39.855469 C 73.324219 39.550781 73.292969 39.242188 73.292969 38.933594 C 73.292969 38.621094 73.324219 38.3125 73.382812 38.007812 C 73.445312 37.703125 73.535156 37.40625 73.652344 37.121094 C 73.773438 36.832031 73.917969 36.558594 74.089844 36.300781 C 74.265625 36.042969 74.460938 35.804688 74.679688 35.582031 C 74.902344 35.363281 75.140625 35.167969 75.398438 34.992188 C 75.65625 34.820312 75.929688 34.675781 76.21875 34.554688 C 76.503906 34.4375 76.800781 34.347656 77.105469 34.285156 C 77.410156 34.226562 77.71875 34.195312 78.03125 34.195312 C 78.339844 34.195312 78.648438 34.226562 78.953125 34.285156 C 79.257812 34.347656 79.554688 34.4375 79.84375 34.554688 C 80.128906 34.675781 80.402344 34.820312 80.660156 34.992188 C 80.917969 35.167969 81.160156 35.363281 81.378906 35.582031 C 81.597656 35.804688 81.796875 36.042969 81.96875 36.300781 C 82.140625 36.558594 82.285156 36.832031 82.40625 37.121094 C 82.523438 37.40625 82.613281 37.703125 82.675781 38.007812 C 82.734375 38.3125 82.765625 38.621094 82.765625 38.933594 Z M 82.765625 38.933594 "/><g clip-rule="nonzero" clip-path="url(#daaab6cdda)"><path style=" stroke:none;fill-rule:nonzero;fill:#d2ac67;fill-opacity:1;" d="M 78.554688 50.070312 L 65.933594 50.070312 C 62.855469 50.070312 60.332031 52.59375 60.332031 55.671875 L 60.332031 56.367188 C 60.332031 59.457031 62.855469 61.984375 65.933594 61.984375 L 78.539062 61.984375 C 81.617188 61.984375 84.140625 59.457031 84.140625 56.382812 L 84.140625 55.6875 C 84.15625 52.59375 81.632812 50.070312 78.554688 50.070312 Z M 78.554688 50.070312 "/></g><path style=" stroke:none;fill-rule:nonzero;fill:#ffffff;fill-opacity:1;" d="M 82.765625 56.027344 C 82.765625 56.339844 82.734375 56.644531 82.675781 56.949219 C 82.613281 57.257812 82.523438 57.550781 82.40625 57.839844 C 82.285156 58.125 82.140625 58.398438 81.96875 58.660156 C 81.796875 58.917969 81.597656 59.15625 81.378906 59.375 C 81.160156 59.597656 80.917969 59.792969 80.660156 59.964844 C 80.402344 60.136719 80.128906 60.285156 79.84375 60.402344 C 79.554688 60.523438 79.257812 60.613281 78.953125 60.671875 C 78.648438 60.734375 78.339844 60.761719 78.03125 60.761719 C 77.71875 60.761719 77.410156 60.734375 77.105469 60.671875 C 76.800781 60.613281 76.503906 60.523438 76.21875 60.402344 C 75.929688 60.285156 75.65625 60.136719 75.398438 59.964844 C 75.140625 59.792969 74.902344 59.597656 74.679688 59.375 C 74.460938 59.15625 74.265625 58.917969 74.089844 58.660156 C 73.917969 58.398438 73.773438 58.125 73.652344 57.839844 C 73.535156 57.550781 73.445312 57.257812 73.382812 56.949219 C 73.324219 56.644531 73.292969 56.339844 73.292969 56.027344 C 73.292969 55.714844 73.324219 55.40625 73.382812 55.101562 C 73.445312 54.796875 73.535156 54.5 73.652344 54.214844 C 73.773438 53.925781 73.917969 53.652344 74.089844 53.394531 C 74.265625 53.136719 74.460938 52.898438 74.679688 52.679688 C 74.902344 52.457031 75.140625 52.261719 75.398438 52.089844 C 75.65625 51.914062 75.929688 51.769531 76.21875 51.652344 C 76.503906 51.53125 76.800781 51.441406 77.105469 51.382812 C 77.410156 51.320312 77.71875 51.289062 78.03125 51.289062 C 78.339844 51.289062 78.648438 51.320312 78.953125 51.382812 C 79.257812 51.441406 79.554688 51.53125 79.84375 51.652344 C 80.128906 51.769531 80.402344 51.914062 80.660156 52.089844 C 80.917969 52.261719 81.160156 52.457031 81.378906 52.679688 C 81.597656 52.898438 81.796875 53.136719 81.96875 53.394531 C 82.140625 53.652344 82.285156 53.925781 82.40625 54.214844 C 82.523438 54.5 82.613281 54.796875 82.675781 55.101562 C 82.734375 55.40625 82.765625 55.714844 82.765625 56.027344 Z M 82.765625 56.027344 "/><g clip-rule="nonzero" clip-path="url(#9dacd31b9c)"><g clip-rule="nonzero" clip-path="url(#2a961020f8)"><g clip-rule="nonzero" clip-path="url(#50d51bc2cb)"><path style=" stroke:none;fill-rule:nonzero;fill:#d2ac67;fill-opacity:1;" d="M 163.882812 12.007812 C 161.316406 10.808594 160.738281 10.902344 158.699219 12.875 C 159.902344 10.308594 159.804688 9.726562 157.832031 7.691406 C 160.398438 8.890625 160.980469 8.796875 163.015625 6.824219 C 161.816406 9.390625 161.914062 9.972656 163.882812 12.007812 Z M 163.882812 12.007812 "/></g></g></g><g style="fill:#d2ac67;fill-opacity:1;"><g transform="translate(91.20304, 57.289879)"><path style="stroke:none" d="M 7.609375 0 L 6.765625 0 L 6.03125 -1.609375 L 1.78125 -1.609375 L 1.046875 0 L 0.21875 0 L 3.421875 -7.15625 L 4.40625 -7.15625 Z M 3.90625 -6.34375 L 2.109375 -2.328125 L 5.703125 -2.328125 Z M 3.90625 -6.34375 "/></g></g><g style="fill:#d2ac67;fill-opacity:1;"><g transform="translate(99.036182, 57.289879)"><path style="stroke:none" d="M 5.09375 -2.3125 L 5.09375 -5.53125 L 5.84375 -5.53125 L 5.84375 0 L 5.09375 0 L 5.09375 -1.125 C 4.894531 -0.757812 4.617188 -0.460938 4.265625 -0.234375 C 3.910156 -0.015625 3.476562 0.09375 2.96875 0.09375 C 2.300781 0.09375 1.765625 -0.113281 1.359375 -0.53125 C 0.953125 -0.957031 0.75 -1.535156 0.75 -2.265625 L 0.75 -5.53125 L 1.53125 -5.53125 L 1.53125 -2.375 C 1.53125 -1.820312 1.664062 -1.390625 1.9375 -1.078125 C 2.21875 -0.765625 2.617188 -0.609375 3.140625 -0.609375 C 3.609375 -0.609375 4.015625 -0.753906 4.359375 -1.046875 C 4.710938 -1.347656 4.957031 -1.769531 5.09375 -2.3125 Z M 5.09375 -2.3125 "/></g></g><g style="fill:#d2ac67;fill-opacity:1;"><g transform="translate(105.742993, 57.289879)"><path style="stroke:none" d="M 2.828125 0.109375 C 2.335938 0.109375 1.945312 -0.03125 1.65625 -0.3125 C 1.375 -0.601562 1.234375 -1.007812 1.234375 -1.53125 L 1.234375 -4.828125 L 0.40625 -4.828125 L 0.40625 -5.265625 L 0.703125 -5.59375 L 1.65625 -6.65625 L 2 -6.65625 L 2 -5.53125 L 3.890625 -5.53125 L 3.890625 -4.828125 L 2 -4.828125 L 2 -1.671875 C 2 -1.335938 2.082031 -1.078125 2.25 -0.890625 C 2.414062 -0.703125 2.648438 -0.609375 2.953125 -0.609375 C 3.109375 -0.609375 3.273438 -0.628906 3.453125 -0.671875 C 3.628906 -0.710938 3.785156 -0.769531 3.921875 -0.84375 L 4.078125 -0.234375 C 3.898438 -0.128906 3.695312 -0.046875 3.46875 0.015625 C 3.25 0.078125 3.035156 0.109375 2.828125 0.109375 Z M 2.828125 0.109375 "/></g></g><g style="fill:#d2ac67;fill-opacity:1;"><g transform="translate(110.238091, 57.289879)"><path style="stroke:none" d="M 3.453125 0.109375 C 2.878906 0.109375 2.375 -0.015625 1.9375 -0.265625 C 1.507812 -0.515625 1.171875 -0.851562 0.921875 -1.28125 C 0.671875 -1.71875 0.546875 -2.21875 0.546875 -2.78125 C 0.546875 -3.332031 0.671875 -3.820312 0.921875 -4.25 C 1.171875 -4.675781 1.515625 -5.007812 1.953125 -5.25 C 2.390625 -5.5 2.890625 -5.625 3.453125 -5.625 C 4.015625 -5.625 4.515625 -5.5 4.953125 -5.25 C 5.398438 -5.007812 5.742188 -4.675781 5.984375 -4.25 C 6.234375 -3.820312 6.359375 -3.332031 6.359375 -2.78125 C 6.359375 -2.226562 6.234375 -1.734375 5.984375 -1.296875 C 5.742188 -0.859375 5.398438 -0.515625 4.953125 -0.265625 C 4.515625 -0.015625 4.015625 0.109375 3.453125 0.109375 Z M 3.453125 -0.609375 C 3.867188 -0.609375 4.238281 -0.695312 4.5625 -0.875 C 4.882812 -1.0625 5.132812 -1.316406 5.3125 -1.640625 C 5.5 -1.972656 5.59375 -2.351562 5.59375 -2.78125 C 5.59375 -3.207031 5.5 -3.582031 5.3125 -3.90625 C 5.132812 -4.226562 4.882812 -4.476562 4.5625 -4.65625 C 4.238281 -4.84375 3.867188 -4.9375 3.453125 -4.9375 C 3.035156 -4.9375 2.664062 -4.84375 2.34375 -4.65625 C 2.019531 -4.476562 1.765625 -4.226562 1.578125 -3.90625 C 1.398438 -3.582031 1.3125 -3.207031 1.3125 -2.78125 C 1.3125 -2.351562 1.398438 -1.972656 1.578125 -1.640625 C 1.765625 -1.316406 2.019531 -1.0625 2.34375 -0.875 C 2.664062 -0.695312 3.035156 -0.609375 3.453125 -0.609375 Z M 3.453125 -0.609375 "/></g></g><g style="fill:#d2ac67;fill-opacity:1;"><g transform="translate(117.151979, 57.289879)"><path style="stroke:none" d="M 3.453125 0.109375 C 2.878906 0.109375 2.359375 -0.0078125 1.890625 -0.25 C 1.429688 -0.488281 1.0625 -0.828125 0.78125 -1.265625 C 0.507812 -1.710938 0.375 -2.234375 0.375 -2.828125 C 0.375 -3.285156 0.457031 -3.691406 0.625 -4.046875 C 0.789062 -4.410156 1.015625 -4.722656 1.296875 -4.984375 C 1.585938 -5.242188 1.914062 -5.441406 2.28125 -5.578125 C 2.644531 -5.710938 3.035156 -5.78125 3.453125 -5.78125 C 3.867188 -5.78125 4.253906 -5.722656 4.609375 -5.609375 C 4.972656 -5.503906 5.328125 -5.320312 5.671875 -5.0625 L 4.984375 -3.84375 C 4.742188 -4.019531 4.515625 -4.144531 4.296875 -4.21875 C 4.085938 -4.300781 3.859375 -4.34375 3.609375 -4.34375 C 3.171875 -4.34375 2.804688 -4.210938 2.515625 -3.953125 C 2.234375 -3.691406 2.09375 -3.316406 2.09375 -2.828125 C 2.09375 -2.347656 2.234375 -1.972656 2.515625 -1.703125 C 2.804688 -1.441406 3.171875 -1.3125 3.609375 -1.3125 C 4.078125 -1.3125 4.539062 -1.46875 5 -1.78125 L 5.671875 -0.59375 C 5.296875 -0.320312 4.9375 -0.132812 4.59375 -0.03125 C 4.25 0.0625 3.867188 0.109375 3.453125 0.109375 Z M 3.453125 0.109375 "/></g></g><g style="fill:#d2ac67;fill-opacity:1;"><g transform="translate(122.98844, 57.289879)"><path style="stroke:none" d="M 4.65625 -2.390625 L 4.65625 -5.65625 L 6.34375 -5.65625 L 6.34375 0 L 4.65625 0 L 4.65625 -0.75 C 4.46875 -0.5 4.21875 -0.289062 3.90625 -0.125 C 3.59375 0.0390625 3.222656 0.125 2.796875 0.125 C 2.109375 0.125 1.5625 -0.078125 1.15625 -0.484375 C 0.757812 -0.898438 0.5625 -1.484375 0.5625 -2.234375 L 0.5625 -5.65625 L 2.25 -5.65625 L 2.25 -2.546875 C 2.25 -1.765625 2.609375 -1.375 3.328125 -1.375 C 3.640625 -1.375 3.910156 -1.46875 4.140625 -1.65625 C 4.378906 -1.84375 4.550781 -2.085938 4.65625 -2.390625 Z M 4.65625 -2.390625 "/></g></g><g style="fill:#d2ac67;fill-opacity:1;"><g transform="translate(129.992191, 57.289879)"><path style="stroke:none" d="M 2.359375 -6.1875 L 0.609375 -6.1875 L 0.609375 -7.515625 L 2.359375 -7.515625 Z M 2.328125 0 L 0.640625 0 L 0.640625 -5.65625 L 2.328125 -5.65625 Z M 2.328125 0 "/></g></g><g style="fill:#d2ac67;fill-opacity:1;"><g transform="translate(132.971856, 57.289879)"><path style="stroke:none" d="M 3.15625 0.125 C 2.65625 0.125 2.195312 0 1.78125 -0.25 C 1.375 -0.507812 1.046875 -0.863281 0.796875 -1.3125 C 0.554688 -1.757812 0.4375 -2.273438 0.4375 -2.859375 C 0.4375 -3.429688 0.554688 -3.9375 0.796875 -4.375 C 1.035156 -4.820312 1.359375 -5.164062 1.765625 -5.40625 C 2.179688 -5.65625 2.644531 -5.78125 3.15625 -5.78125 C 3.519531 -5.78125 3.859375 -5.71875 4.171875 -5.59375 C 4.484375 -5.476562 4.757812 -5.289062 5 -5.03125 L 5 -7.546875 L 6.6875 -7.546875 L 6.6875 0 L 5 0 L 5 -0.640625 C 4.757812 -0.378906 4.476562 -0.1875 4.15625 -0.0625 C 3.84375 0.0625 3.507812 0.125 3.15625 0.125 Z M 3.546875 -1.328125 C 3.847656 -1.328125 4.109375 -1.394531 4.328125 -1.53125 C 4.546875 -1.664062 4.710938 -1.847656 4.828125 -2.078125 C 4.941406 -2.304688 5 -2.554688 5 -2.828125 C 5 -3.285156 4.863281 -3.648438 4.59375 -3.921875 C 4.332031 -4.191406 3.984375 -4.328125 3.546875 -4.328125 C 3.128906 -4.328125 2.785156 -4.191406 2.515625 -3.921875 C 2.253906 -3.648438 2.125 -3.289062 2.125 -2.84375 C 2.125 -2.382812 2.253906 -2.015625 2.515625 -1.734375 C 2.785156 -1.460938 3.128906 -1.328125 3.546875 -1.328125 Z M 3.546875 -1.328125 "/></g></g><g style="fill:#d2ac67;fill-opacity:1;"><g transform="translate(140.313508, 57.289879)"><path style="stroke:none" d="M 2.96875 -5.78125 C 3.945312 -5.78125 4.660156 -5.554688 5.109375 -5.109375 C 5.566406 -4.671875 5.796875 -4.070312 5.796875 -3.3125 L 5.796875 0 L 4.109375 0 L 4.109375 -0.71875 C 3.953125 -0.488281 3.710938 -0.289062 3.390625 -0.125 C 3.078125 0.0390625 2.691406 0.125 2.234375 0.125 C 1.835938 0.125 1.488281 0.046875 1.1875 -0.109375 C 0.894531 -0.265625 0.664062 -0.472656 0.5 -0.734375 C 0.34375 -1.003906 0.265625 -1.316406 0.265625 -1.671875 C 0.265625 -2.191406 0.441406 -2.617188 0.796875 -2.953125 C 1.160156 -3.285156 1.734375 -3.453125 2.515625 -3.453125 C 2.773438 -3.453125 3.046875 -3.445312 3.328125 -3.4375 C 3.617188 -3.425781 3.875 -3.410156 4.09375 -3.390625 L 4.09375 -3.421875 C 4.09375 -4.066406 3.65625 -4.390625 2.78125 -4.390625 C 2.46875 -4.390625 2.160156 -4.363281 1.859375 -4.3125 C 1.566406 -4.257812 1.296875 -4.179688 1.046875 -4.078125 L 0.875 -5.46875 C 1.195312 -5.570312 1.535156 -5.648438 1.890625 -5.703125 C 2.242188 -5.753906 2.601562 -5.78125 2.96875 -5.78125 Z M 2.8125 -1.203125 C 3.21875 -1.203125 3.523438 -1.304688 3.734375 -1.515625 C 3.941406 -1.722656 4.0625 -1.988281 4.09375 -2.3125 L 4.09375 -2.453125 C 3.925781 -2.472656 3.753906 -2.488281 3.578125 -2.5 C 3.410156 -2.507812 3.21875 -2.515625 3 -2.515625 C 2.582031 -2.515625 2.289062 -2.453125 2.125 -2.328125 C 1.96875 -2.203125 1.890625 -2.035156 1.890625 -1.828125 C 1.890625 -1.628906 1.96875 -1.472656 2.125 -1.359375 C 2.289062 -1.253906 2.519531 -1.203125 2.8125 -1.203125 Z M 2.8125 -1.203125 "/></g></g><g style="fill:#d2ac67;fill-opacity:1;"><g transform="translate(146.672178, 57.289879)"><path style="stroke:none" d="M 3.15625 0.125 C 2.65625 0.125 2.195312 0 1.78125 -0.25 C 1.375 -0.507812 1.046875 -0.863281 0.796875 -1.3125 C 0.554688 -1.757812 0.4375 -2.273438 0.4375 -2.859375 C 0.4375 -3.429688 0.554688 -3.9375 0.796875 -4.375 C 1.035156 -4.820312 1.359375 -5.164062 1.765625 -5.40625 C 2.179688 -5.65625 2.644531 -5.78125 3.15625 -5.78125 C 3.519531 -5.78125 3.859375 -5.71875 4.171875 -5.59375 C 4.484375 -5.476562 4.757812 -5.289062 5 -5.03125 L 5 -7.546875 L 6.6875 -7.546875 L 6.6875 0 L 5 0 L 5 -0.640625 C 4.757812 -0.378906 4.476562 -0.1875 4.15625 -0.0625 C 3.84375 0.0625 3.507812 0.125 3.15625 0.125 Z M 3.546875 -1.328125 C 3.847656 -1.328125 4.109375 -1.394531 4.328125 -1.53125 C 4.546875 -1.664062 4.710938 -1.847656 4.828125 -2.078125 C 4.941406 -2.304688 5 -2.554688 5 -2.828125 C 5 -3.285156 4.863281 -3.648438 4.59375 -3.921875 C 4.332031 -4.191406 3.984375 -4.328125 3.546875 -4.328125 C 3.128906 -4.328125 2.785156 -4.191406 2.515625 -3.921875 C 2.253906 -3.648438 2.125 -3.289062 2.125 -2.84375 C 2.125 -2.382812 2.253906 -2.015625 2.515625 -1.734375 C 2.785156 -1.460938 3.128906 -1.328125 3.546875 -1.328125 Z M 3.546875 -1.328125 "/></g></g><g style="fill:#d2ac67;fill-opacity:1;"><g transform="translate(154.01383, 57.289879)"><path style="stroke:none" d="M 3.546875 0.125 C 2.929688 0.125 2.382812 0 1.90625 -0.25 C 1.4375 -0.507812 1.0625 -0.863281 0.78125 -1.3125 C 0.507812 -1.757812 0.375 -2.265625 0.375 -2.828125 C 0.375 -3.398438 0.507812 -3.910156 0.78125 -4.359375 C 1.0625 -4.804688 1.441406 -5.15625 1.921875 -5.40625 C 2.398438 -5.65625 2.941406 -5.78125 3.546875 -5.78125 C 4.160156 -5.78125 4.703125 -5.65625 5.171875 -5.40625 C 5.648438 -5.15625 6.023438 -4.804688 6.296875 -4.359375 C 6.578125 -3.910156 6.71875 -3.40625 6.71875 -2.84375 C 6.71875 -2.28125 6.578125 -1.769531 6.296875 -1.3125 C 6.023438 -0.863281 5.648438 -0.507812 5.171875 -0.25 C 4.703125 0 4.160156 0.125 3.546875 0.125 Z M 3.546875 -1.328125 C 3.972656 -1.328125 4.320312 -1.460938 4.59375 -1.734375 C 4.863281 -2.015625 5 -2.378906 5 -2.828125 C 5 -3.285156 4.859375 -3.648438 4.578125 -3.921875 C 4.304688 -4.203125 3.960938 -4.34375 3.546875 -4.34375 C 3.128906 -4.34375 2.78125 -4.203125 2.5 -3.921875 C 2.226562 -3.648438 2.09375 -3.296875 2.09375 -2.859375 C 2.09375 -2.398438 2.226562 -2.03125 2.5 -1.75 C 2.78125 -1.46875 3.128906 -1.328125 3.546875 -1.328125 Z M 3.546875 -1.328125 "/></g></g><g style="fill:#d2ac67;fill-opacity:1;"><g transform="translate(91.58283, 41.722998)"><path style="stroke:none" d="M 7.609375 0 L 6.765625 0 L 6.03125 -1.609375 L 1.78125 -1.609375 L 1.046875 0 L 0.21875 0 L 3.421875 -7.15625 L 4.40625 -7.15625 Z M 3.90625 -6.34375 L 2.109375 -2.328125 L 5.703125 -2.328125 Z M 3.90625 -6.34375 "/></g></g><g style="fill:#d2ac67;fill-opacity:1;"><g transform="translate(99.415972, 41.722998)"><path style="stroke:none" d="M 7.515625 -5.625 C 8.160156 -5.625 8.648438 -5.414062 8.984375 -5 C 9.316406 -4.582031 9.484375 -4.019531 9.484375 -3.3125 L 9.484375 0 L 8.703125 0 L 8.703125 -3.1875 C 8.703125 -3.726562 8.582031 -4.148438 8.34375 -4.453125 C 8.113281 -4.753906 7.78125 -4.90625 7.34375 -4.90625 C 6.894531 -4.90625 6.507812 -4.757812 6.1875 -4.46875 C 5.863281 -4.1875 5.648438 -3.820312 5.546875 -3.375 L 5.546875 0 L 4.78125 0 L 4.78125 -3.1875 C 4.78125 -3.757812 4.660156 -4.1875 4.421875 -4.46875 C 4.191406 -4.757812 3.867188 -4.90625 3.453125 -4.90625 C 3.160156 -4.90625 2.890625 -4.832031 2.640625 -4.6875 C 2.390625 -4.550781 2.175781 -4.363281 2 -4.125 C 1.820312 -3.894531 1.691406 -3.632812 1.609375 -3.34375 L 1.609375 0 L 0.859375 0 L 0.859375 -5.53125 L 1.609375 -5.53125 L 1.609375 -4.453125 C 1.796875 -4.785156 2.054688 -5.0625 2.390625 -5.28125 C 2.722656 -5.507812 3.128906 -5.625 3.609375 -5.625 C 4.054688 -5.625 4.425781 -5.515625 4.71875 -5.296875 C 5.019531 -5.085938 5.242188 -4.789062 5.390625 -4.40625 C 5.585938 -4.757812 5.867188 -5.050781 6.234375 -5.28125 C 6.597656 -5.507812 7.023438 -5.625 7.515625 -5.625 Z M 7.515625 -5.625 "/></g></g><g style="fill:#d2ac67;fill-opacity:1;"><g transform="translate(109.645135, 41.722998)"><path style="stroke:none" d="M 3.453125 0.109375 C 2.878906 0.109375 2.375 -0.015625 1.9375 -0.265625 C 1.507812 -0.515625 1.171875 -0.851562 0.921875 -1.28125 C 0.671875 -1.71875 0.546875 -2.21875 0.546875 -2.78125 C 0.546875 -3.332031 0.671875 -3.820312 0.921875 -4.25 C 1.171875 -4.675781 1.515625 -5.007812 1.953125 -5.25 C 2.390625 -5.5 2.890625 -5.625 3.453125 -5.625 C 4.015625 -5.625 4.515625 -5.5 4.953125 -5.25 C 5.398438 -5.007812 5.742188 -4.675781 5.984375 -4.25 C 6.234375 -3.820312 6.359375 -3.332031 6.359375 -2.78125 C 6.359375 -2.226562 6.234375 -1.734375 5.984375 -1.296875 C 5.742188 -0.859375 5.398438 -0.515625 4.953125 -0.265625 C 4.515625 -0.015625 4.015625 0.109375 3.453125 0.109375 Z M 3.453125 -0.609375 C 3.867188 -0.609375 4.238281 -0.695312 4.5625 -0.875 C 4.882812 -1.0625 5.132812 -1.316406 5.3125 -1.640625 C 5.5 -1.972656 5.59375 -2.351562 5.59375 -2.78125 C 5.59375 -3.207031 5.5 -3.582031 5.3125 -3.90625 C 5.132812 -4.226562 4.882812 -4.476562 4.5625 -4.65625 C 4.238281 -4.84375 3.867188 -4.9375 3.453125 -4.9375 C 3.035156 -4.9375 2.664062 -4.84375 2.34375 -4.65625 C 2.019531 -4.476562 1.765625 -4.226562 1.578125 -3.90625 C 1.398438 -3.582031 1.3125 -3.207031 1.3125 -2.78125 C 1.3125 -2.351562 1.398438 -1.972656 1.578125 -1.640625 C 1.765625 -1.316406 2.019531 -1.0625 2.34375 -0.875 C 2.664062 -0.695312 3.035156 -0.609375 3.453125 -0.609375 Z M 3.453125 -0.609375 "/></g></g><g style="fill:#d2ac67;fill-opacity:1;"><g transform="translate(116.556731, 41.722998)"><path style="stroke:none" d="M 3.53125 -5.625 C 3.625 -5.625 3.722656 -5.617188 3.828125 -5.609375 C 3.929688 -5.597656 4.035156 -5.582031 4.140625 -5.5625 L 4.046875 -4.828125 C 3.960938 -4.835938 3.863281 -4.84375 3.75 -4.84375 C 3.644531 -4.851562 3.550781 -4.859375 3.46875 -4.859375 C 3.0625 -4.859375 2.71875 -4.757812 2.4375 -4.5625 C 2.164062 -4.363281 1.957031 -4.09375 1.8125 -3.75 C 1.675781 -3.40625 1.609375 -3.007812 1.609375 -2.5625 L 1.609375 0 L 0.859375 0 L 0.859375 -5.53125 L 1.609375 -5.53125 L 1.609375 -4.375 C 1.929688 -5.207031 2.570312 -5.625 3.53125 -5.625 Z M 3.53125 -5.625 "/></g></g><g style="fill:#d2ac67;fill-opacity:1;"><g transform="translate(120.795844, 41.722998)"><path style="stroke:none" d=""/></g></g><g style="fill:#d2ac67;fill-opacity:1;"><g transform="translate(123.716244, 41.722998)"><path style="stroke:none" d="M 2.328125 1.765625 L 0.640625 1.765625 L 0.640625 -5.65625 L 2.328125 -5.65625 L 2.328125 -5.03125 C 2.566406 -5.28125 2.847656 -5.46875 3.171875 -5.59375 C 3.492188 -5.71875 3.832031 -5.78125 4.1875 -5.78125 C 4.6875 -5.78125 5.140625 -5.65625 5.546875 -5.40625 C 5.953125 -5.15625 6.273438 -4.804688 6.515625 -4.359375 C 6.765625 -3.910156 6.890625 -3.394531 6.890625 -2.8125 C 6.890625 -2.226562 6.769531 -1.710938 6.53125 -1.265625 C 6.289062 -0.828125 5.960938 -0.484375 5.546875 -0.234375 C 5.140625 0.00390625 4.679688 0.125 4.171875 0.125 C 3.816406 0.125 3.476562 0.0664062 3.15625 -0.046875 C 2.84375 -0.171875 2.566406 -0.363281 2.328125 -0.625 Z M 3.796875 -1.328125 C 4.210938 -1.328125 4.550781 -1.460938 4.8125 -1.734375 C 5.070312 -2.015625 5.203125 -2.375 5.203125 -2.8125 C 5.203125 -3.269531 5.070312 -3.632812 4.8125 -3.90625 C 4.5625 -4.1875 4.222656 -4.328125 3.796875 -4.328125 C 3.492188 -4.328125 3.234375 -4.257812 3.015625 -4.125 C 2.796875 -3.988281 2.628906 -3.804688 2.515625 -3.578125 C 2.398438 -3.359375 2.335938 -3.109375 2.328125 -2.828125 C 2.328125 -2.367188 2.460938 -2.003906 2.734375 -1.734375 C 3.015625 -1.460938 3.367188 -1.328125 3.796875 -1.328125 Z M 3.796875 -1.328125 "/></g></g><g style="fill:#d2ac67;fill-opacity:1;"><g transform="translate(130.99646, 41.722998)"><path style="stroke:none" d="M 3.9375 -5.765625 C 4.039062 -5.765625 4.148438 -5.757812 4.265625 -5.75 C 4.378906 -5.738281 4.503906 -5.71875 4.640625 -5.6875 L 4.453125 -4.1875 L 3.703125 -4.1875 C 3.273438 -4.1875 2.9375 -4.007812 2.6875 -3.65625 C 2.445312 -3.3125 2.328125 -2.863281 2.328125 -2.3125 L 2.328125 0 L 0.640625 0 L 0.640625 -5.65625 L 2.328125 -5.65625 L 2.328125 -4.796875 C 2.484375 -5.109375 2.691406 -5.347656 2.953125 -5.515625 C 3.210938 -5.679688 3.539062 -5.765625 3.9375 -5.765625 Z M 3.9375 -5.765625 "/></g></g><g style="fill:#d2ac67;fill-opacity:1;"><g transform="translate(135.665628, 41.722998)"><path style="stroke:none" d="M 5.171875 -7.484375 L 3.984375 -6.203125 L 2.796875 -6.3125 L 3.59375 -7.84375 Z M 3.546875 0.125 C 2.929688 0.125 2.382812 0 1.90625 -0.25 C 1.4375 -0.507812 1.0625 -0.863281 0.78125 -1.3125 C 0.507812 -1.757812 0.375 -2.265625 0.375 -2.828125 C 0.375 -3.398438 0.507812 -3.910156 0.78125 -4.359375 C 1.0625 -4.804688 1.441406 -5.15625 1.921875 -5.40625 C 2.398438 -5.65625 2.941406 -5.78125 3.546875 -5.78125 C 4.160156 -5.78125 4.703125 -5.65625 5.171875 -5.40625 C 5.648438 -5.15625 6.023438 -4.804688 6.296875 -4.359375 C 6.578125 -3.910156 6.71875 -3.40625 6.71875 -2.84375 C 6.71875 -2.28125 6.578125 -1.769531 6.296875 -1.3125 C 6.023438 -0.863281 5.648438 -0.507812 5.171875 -0.25 C 4.703125 0 4.160156 0.125 3.546875 0.125 Z M 3.546875 -1.328125 C 3.972656 -1.328125 4.320312 -1.460938 4.59375 -1.734375 C 4.863281 -2.015625 5 -2.378906 5 -2.828125 C 5 -3.285156 4.859375 -3.648438 4.578125 -3.921875 C 4.304688 -4.203125 3.960938 -4.34375 3.546875 -4.34375 C 3.128906 -4.34375 2.78125 -4.203125 2.5 -3.921875 C 2.226562 -3.648438 2.09375 -3.296875 2.09375 -2.859375 C 2.09375 -2.398438 2.226562 -2.03125 2.5 -1.75 C 2.78125 -1.46875 3.128906 -1.328125 3.546875 -1.328125 Z M 3.546875 -1.328125 "/></g></g><g style="fill:#d2ac67;fill-opacity:1;"><g transform="translate(142.761533, 41.722998)"><path style="stroke:none" d="M 2.328125 1.765625 L 0.640625 1.765625 L 0.640625 -5.65625 L 2.328125 -5.65625 L 2.328125 -5.03125 C 2.566406 -5.28125 2.847656 -5.46875 3.171875 -5.59375 C 3.492188 -5.71875 3.832031 -5.78125 4.1875 -5.78125 C 4.6875 -5.78125 5.140625 -5.65625 5.546875 -5.40625 C 5.953125 -5.15625 6.273438 -4.804688 6.515625 -4.359375 C 6.765625 -3.910156 6.890625 -3.394531 6.890625 -2.8125 C 6.890625 -2.226562 6.769531 -1.710938 6.53125 -1.265625 C 6.289062 -0.828125 5.960938 -0.484375 5.546875 -0.234375 C 5.140625 0.00390625 4.679688 0.125 4.171875 0.125 C 3.816406 0.125 3.476562 0.0664062 3.15625 -0.046875 C 2.84375 -0.171875 2.566406 -0.363281 2.328125 -0.625 Z M 3.796875 -1.328125 C 4.210938 -1.328125 4.550781 -1.460938 4.8125 -1.734375 C 5.070312 -2.015625 5.203125 -2.375 5.203125 -2.8125 C 5.203125 -3.269531 5.070312 -3.632812 4.8125 -3.90625 C 4.5625 -4.1875 4.222656 -4.328125 3.796875 -4.328125 C 3.492188 -4.328125 3.234375 -4.257812 3.015625 -4.125 C 2.796875 -3.988281 2.628906 -3.804688 2.515625 -3.578125 C 2.398438 -3.359375 2.335938 -3.109375 2.328125 -2.828125 C 2.328125 -2.367188 2.460938 -2.003906 2.734375 -1.734375 C 3.015625 -1.460938 3.367188 -1.328125 3.796875 -1.328125 Z M 3.796875 -1.328125 "/></g></g><g style="fill:#d2ac67;fill-opacity:1;"><g transform="translate(150.041749, 41.722998)"><path style="stroke:none" d="M 3.9375 -5.765625 C 4.039062 -5.765625 4.148438 -5.757812 4.265625 -5.75 C 4.378906 -5.738281 4.503906 -5.71875 4.640625 -5.6875 L 4.453125 -4.1875 L 3.703125 -4.1875 C 3.273438 -4.1875 2.9375 -4.007812 2.6875 -3.65625 C 2.445312 -3.3125 2.328125 -2.863281 2.328125 -2.3125 L 2.328125 0 L 0.640625 0 L 0.640625 -5.65625 L 2.328125 -5.65625 L 2.328125 -4.796875 C 2.484375 -5.109375 2.691406 -5.347656 2.953125 -5.515625 C 3.210938 -5.679688 3.539062 -5.765625 3.9375 -5.765625 Z M 3.9375 -5.765625 "/></g></g><g style="fill:#d2ac67;fill-opacity:1;"><g transform="translate(154.710917, 41.722998)"><path style="stroke:none" d="M 2.359375 -6.1875 L 0.609375 -6.1875 L 0.609375 -7.515625 L 2.359375 -7.515625 Z M 2.328125 0 L 0.640625 0 L 0.640625 -5.65625 L 2.328125 -5.65625 Z M 2.328125 0 "/></g></g><g style="fill:#d2ac67;fill-opacity:1;"><g transform="translate(157.690583, 41.722998)"><path style="stroke:none" d="M 3.546875 0.125 C 2.929688 0.125 2.382812 0 1.90625 -0.25 C 1.4375 -0.507812 1.0625 -0.863281 0.78125 -1.3125 C 0.507812 -1.757812 0.375 -2.265625 0.375 -2.828125 C 0.375 -3.398438 0.507812 -3.910156 0.78125 -4.359375 C 1.0625 -4.804688 1.441406 -5.15625 1.921875 -5.40625 C 2.398438 -5.65625 2.941406 -5.78125 3.546875 -5.78125 C 4.160156 -5.78125 4.703125 -5.65625 5.171875 -5.40625 C 5.648438 -5.15625 6.023438 -4.804688 6.296875 -4.359375 C 6.578125 -3.910156 6.71875 -3.40625 6.71875 -2.84375 C 6.71875 -2.28125 6.578125 -1.769531 6.296875 -1.3125 C 6.023438 -0.863281 5.648438 -0.507812 5.171875 -0.25 C 4.703125 0 4.160156 0.125 3.546875 0.125 Z M 3.546875 -1.328125 C 3.972656 -1.328125 4.320312 -1.460938 4.59375 -1.734375 C 4.863281 -2.015625 5 -2.378906 5 -2.828125 C 5 -3.285156 4.859375 -3.648438 4.578125 -3.921875 C 4.304688 -4.203125 3.960938 -4.34375 3.546875 -4.34375 C 3.128906 -4.34375 2.78125 -4.203125 2.5 -3.921875 C 2.226562 -3.648438 2.09375 -3.296875 2.09375 -2.859375 C 2.09375 -2.398438 2.226562 -2.03125 2.5 -1.75 C 2.78125 -1.46875 3.128906 -1.328125 3.546875 -1.328125 Z M 3.546875 -1.328125 "/></g></g><g style="fill:#d2ac67;fill-opacity:1;"><g transform="translate(91.58283, 25.777433)"><path style="stroke:none" d="M 7.609375 0 L 6.765625 0 L 6.03125 -1.609375 L 1.78125 -1.609375 L 1.046875 0 L 0.21875 0 L 3.421875 -7.15625 L 4.40625 -7.15625 Z M 3.90625 -6.34375 L 2.109375 -2.328125 L 5.703125 -2.328125 Z M 3.90625 -6.34375 "/></g></g><g style="fill:#d2ac67;fill-opacity:1;"><g transform="translate(99.415972, 25.777433)"><path style="stroke:none" d="M 5.09375 -2.3125 L 5.09375 -5.53125 L 5.84375 -5.53125 L 5.84375 0 L 5.09375 0 L 5.09375 -1.125 C 4.894531 -0.757812 4.617188 -0.460938 4.265625 -0.234375 C 3.910156 -0.015625 3.476562 0.09375 2.96875 0.09375 C 2.300781 0.09375 1.765625 -0.113281 1.359375 -0.53125 C 0.953125 -0.957031 0.75 -1.535156 0.75 -2.265625 L 0.75 -5.53125 L 1.53125 -5.53125 L 1.53125 -2.375 C 1.53125 -1.820312 1.664062 -1.390625 1.9375 -1.078125 C 2.21875 -0.765625 2.617188 -0.609375 3.140625 -0.609375 C 3.609375 -0.609375 4.015625 -0.753906 4.359375 -1.046875 C 4.710938 -1.347656 4.957031 -1.769531 5.09375 -2.3125 Z M 5.09375 -2.3125 "/></g></g><g style="fill:#d2ac67;fill-opacity:1;"><g transform="translate(106.122783, 25.777433)"><path style="stroke:none" d="M 2.828125 0.109375 C 2.335938 0.109375 1.945312 -0.03125 1.65625 -0.3125 C 1.375 -0.601562 1.234375 -1.007812 1.234375 -1.53125 L 1.234375 -4.828125 L 0.40625 -4.828125 L 0.40625 -5.265625 L 0.703125 -5.59375 L 1.65625 -6.65625 L 2 -6.65625 L 2 -5.53125 L 3.890625 -5.53125 L 3.890625 -4.828125 L 2 -4.828125 L 2 -1.671875 C 2 -1.335938 2.082031 -1.078125 2.25 -0.890625 C 2.414062 -0.703125 2.648438 -0.609375 2.953125 -0.609375 C 3.109375 -0.609375 3.273438 -0.628906 3.453125 -0.671875 C 3.628906 -0.710938 3.785156 -0.769531 3.921875 -0.84375 L 4.078125 -0.234375 C 3.898438 -0.128906 3.695312 -0.046875 3.46875 0.015625 C 3.25 0.078125 3.035156 0.109375 2.828125 0.109375 Z M 2.828125 0.109375 "/></g></g><g style="fill:#d2ac67;fill-opacity:1;"><g transform="translate(110.617881, 25.777433)"><path style="stroke:none" d="M 3.453125 0.109375 C 2.878906 0.109375 2.375 -0.015625 1.9375 -0.265625 C 1.507812 -0.515625 1.171875 -0.851562 0.921875 -1.28125 C 0.671875 -1.71875 0.546875 -2.21875 0.546875 -2.78125 C 0.546875 -3.332031 0.671875 -3.820312 0.921875 -4.25 C 1.171875 -4.675781 1.515625 -5.007812 1.953125 -5.25 C 2.390625 -5.5 2.890625 -5.625 3.453125 -5.625 C 4.015625 -5.625 4.515625 -5.5 4.953125 -5.25 C 5.398438 -5.007812 5.742188 -4.675781 5.984375 -4.25 C 6.234375 -3.820312 6.359375 -3.332031 6.359375 -2.78125 C 6.359375 -2.226562 6.234375 -1.734375 5.984375 -1.296875 C 5.742188 -0.859375 5.398438 -0.515625 4.953125 -0.265625 C 4.515625 -0.015625 4.015625 0.109375 3.453125 0.109375 Z M 3.453125 -0.609375 C 3.867188 -0.609375 4.238281 -0.695312 4.5625 -0.875 C 4.882812 -1.0625 5.132812 -1.316406 5.3125 -1.640625 C 5.5 -1.972656 5.59375 -2.351562 5.59375 -2.78125 C 5.59375 -3.207031 5.5 -3.582031 5.3125 -3.90625 C 5.132812 -4.226562 4.882812 -4.476562 4.5625 -4.65625 C 4.238281 -4.84375 3.867188 -4.9375 3.453125 -4.9375 C 3.035156 -4.9375 2.664062 -4.84375 2.34375 -4.65625 C 2.019531 -4.476562 1.765625 -4.226562 1.578125 -3.90625 C 1.398438 -3.582031 1.3125 -3.207031 1.3125 -2.78125 C 1.3125 -2.351562 1.398438 -1.972656 1.578125 -1.640625 C 1.765625 -1.316406 2.019531 -1.0625 2.34375 -0.875 C 2.664062 -0.695312 3.035156 -0.609375 3.453125 -0.609375 Z M 3.453125 -0.609375 "/></g></g><g style="fill:#d2ac67;fill-opacity:1;"><g transform="translate(117.531769, 25.777433)"><path style="stroke:none" d="M 3.453125 0.109375 C 2.878906 0.109375 2.359375 -0.0078125 1.890625 -0.25 C 1.429688 -0.488281 1.0625 -0.828125 0.78125 -1.265625 C 0.507812 -1.710938 0.375 -2.234375 0.375 -2.828125 C 0.375 -3.285156 0.457031 -3.691406 0.625 -4.046875 C 0.789062 -4.410156 1.015625 -4.722656 1.296875 -4.984375 C 1.585938 -5.242188 1.914062 -5.441406 2.28125 -5.578125 C 2.644531 -5.710938 3.035156 -5.78125 3.453125 -5.78125 C 3.867188 -5.78125 4.253906 -5.722656 4.609375 -5.609375 C 4.972656 -5.503906 5.328125 -5.320312 5.671875 -5.0625 L 4.984375 -3.84375 C 4.742188 -4.019531 4.515625 -4.144531 4.296875 -4.21875 C 4.085938 -4.300781 3.859375 -4.34375 3.609375 -4.34375 C 3.171875 -4.34375 2.804688 -4.210938 2.515625 -3.953125 C 2.234375 -3.691406 2.09375 -3.316406 2.09375 -2.828125 C 2.09375 -2.347656 2.234375 -1.972656 2.515625 -1.703125 C 2.804688 -1.441406 3.171875 -1.3125 3.609375 -1.3125 C 4.078125 -1.3125 4.539062 -1.46875 5 -1.78125 L 5.671875 -0.59375 C 5.296875 -0.320312 4.9375 -0.132812 4.59375 -0.03125 C 4.25 0.0625 3.867188 0.109375 3.453125 0.109375 Z M 3.453125 0.109375 "/></g></g><g style="fill:#d2ac67;fill-opacity:1;"><g transform="translate(123.36823, 25.777433)"><path style="stroke:none" d="M 3.546875 0.125 C 2.929688 0.125 2.382812 0 1.90625 -0.25 C 1.4375 -0.507812 1.0625 -0.863281 0.78125 -1.3125 C 0.507812 -1.757812 0.375 -2.265625 0.375 -2.828125 C 0.375 -3.398438 0.507812 -3.910156 0.78125 -4.359375 C 1.0625 -4.804688 1.441406 -5.15625 1.921875 -5.40625 C 2.398438 -5.65625 2.941406 -5.78125 3.546875 -5.78125 C 4.160156 -5.78125 4.703125 -5.65625 5.171875 -5.40625 C 5.648438 -5.15625 6.023438 -4.804688 6.296875 -4.359375 C 6.578125 -3.910156 6.71875 -3.40625 6.71875 -2.84375 C 6.71875 -2.28125 6.578125 -1.769531 6.296875 -1.3125 C 6.023438 -0.863281 5.648438 -0.507812 5.171875 -0.25 C 4.703125 0 4.160156 0.125 3.546875 0.125 Z M 3.546875 -1.328125 C 3.972656 -1.328125 4.320312 -1.460938 4.59375 -1.734375 C 4.863281 -2.015625 5 -2.378906 5 -2.828125 C 5 -3.285156 4.859375 -3.648438 4.578125 -3.921875 C 4.304688 -4.203125 3.960938 -4.34375 3.546875 -4.34375 C 3.128906 -4.34375 2.78125 -4.203125 2.5 -3.921875 C 2.226562 -3.648438 2.09375 -3.296875 2.09375 -2.859375 C 2.09375 -2.398438 2.226562 -2.03125 2.5 -1.75 C 2.78125 -1.46875 3.128906 -1.328125 3.546875 -1.328125 Z M 3.546875 -1.328125 "/></g></g><g style="fill:#d2ac67;fill-opacity:1;"><g transform="translate(130.464135, 25.777433)"><path style="stroke:none" d="M 4.203125 -5.78125 C 4.878906 -5.78125 5.414062 -5.570312 5.8125 -5.15625 C 6.21875 -4.75 6.421875 -4.171875 6.421875 -3.421875 L 6.421875 0 L 4.734375 0 L 4.734375 -3.109375 C 4.734375 -3.890625 4.375 -4.28125 3.65625 -4.28125 C 3.34375 -4.28125 3.070312 -4.1875 2.84375 -4 C 2.613281 -3.8125 2.441406 -3.570312 2.328125 -3.28125 L 2.328125 0 L 0.640625 0 L 0.640625 -5.65625 L 2.328125 -5.65625 L 2.328125 -4.90625 C 2.523438 -5.164062 2.773438 -5.375 3.078125 -5.53125 C 3.390625 -5.695312 3.765625 -5.78125 4.203125 -5.78125 Z M 4.203125 -5.78125 "/></g></g><g style="fill:#d2ac67;fill-opacity:1;"><g transform="translate(137.457646, 25.777433)"><path style="stroke:none" d="M 4.203125 -5.78125 C 4.878906 -5.78125 5.414062 -5.570312 5.8125 -5.15625 C 6.21875 -4.75 6.421875 -4.171875 6.421875 -3.421875 L 6.421875 0 L 4.734375 0 L 4.734375 -3.109375 C 4.734375 -3.890625 4.375 -4.28125 3.65625 -4.28125 C 3.34375 -4.28125 3.070312 -4.1875 2.84375 -4 C 2.613281 -3.8125 2.441406 -3.570312 2.328125 -3.28125 L 2.328125 0 L 0.640625 0 L 0.640625 -7.546875 L 2.328125 -7.546875 L 2.328125 -4.90625 C 2.523438 -5.164062 2.773438 -5.375 3.078125 -5.53125 C 3.390625 -5.695312 3.765625 -5.78125 4.203125 -5.78125 Z M 4.203125 -5.78125 "/></g></g><g style="fill:#d2ac67;fill-opacity:1;"><g transform="translate(144.451158, 25.777433)"><path style="stroke:none" d="M 6.078125 -2.328125 L 2.078125 -2.328125 C 2.160156 -1.953125 2.34375 -1.675781 2.625 -1.5 C 2.90625 -1.332031 3.253906 -1.25 3.671875 -1.25 C 3.921875 -1.25 4.1875 -1.285156 4.46875 -1.359375 C 4.75 -1.429688 5.003906 -1.539062 5.234375 -1.6875 L 5.625 -0.453125 C 5.300781 -0.242188 4.972656 -0.09375 4.640625 0 C 4.304688 0.0820312 3.9375 0.125 3.53125 0.125 C 2.925781 0.125 2.382812 0 1.90625 -0.25 C 1.4375 -0.5 1.0625 -0.847656 0.78125 -1.296875 C 0.507812 -1.742188 0.375 -2.253906 0.375 -2.828125 C 0.375 -3.398438 0.503906 -3.90625 0.765625 -4.34375 C 1.023438 -4.789062 1.382812 -5.140625 1.84375 -5.390625 C 2.300781 -5.648438 2.835938 -5.78125 3.453125 -5.78125 C 4.003906 -5.78125 4.488281 -5.671875 4.90625 -5.453125 C 5.320312 -5.234375 5.648438 -4.9375 5.890625 -4.5625 C 6.140625 -4.195312 6.265625 -3.773438 6.265625 -3.296875 C 6.265625 -3.117188 6.242188 -2.953125 6.203125 -2.796875 C 6.171875 -2.640625 6.128906 -2.484375 6.078125 -2.328125 Z M 3.40625 -4.421875 C 3.039062 -4.421875 2.742188 -4.320312 2.515625 -4.125 C 2.296875 -3.9375 2.148438 -3.671875 2.078125 -3.328125 L 4.609375 -3.34375 C 4.585938 -3.695312 4.46875 -3.960938 4.25 -4.140625 C 4.039062 -4.328125 3.757812 -4.421875 3.40625 -4.421875 Z M 3.40625 -4.421875 "/></g></g><g style="fill:#d2ac67;fill-opacity:1;"><g transform="translate(151.09653, 25.777433)"><path style="stroke:none" d="M 3.453125 0.109375 C 2.878906 0.109375 2.359375 -0.0078125 1.890625 -0.25 C 1.429688 -0.488281 1.0625 -0.828125 0.78125 -1.265625 C 0.507812 -1.710938 0.375 -2.234375 0.375 -2.828125 C 0.375 -3.285156 0.457031 -3.691406 0.625 -4.046875 C 0.789062 -4.410156 1.015625 -4.722656 1.296875 -4.984375 C 1.585938 -5.242188 1.914062 -5.441406 2.28125 -5.578125 C 2.644531 -5.710938 3.035156 -5.78125 3.453125 -5.78125 C 3.867188 -5.78125 4.253906 -5.722656 4.609375 -5.609375 C 4.972656 -5.503906 5.328125 -5.320312 5.671875 -5.0625 L 4.984375 -3.84375 C 4.742188 -4.019531 4.515625 -4.144531 4.296875 -4.21875 C 4.085938 -4.300781 3.859375 -4.34375 3.609375 -4.34375 C 3.171875 -4.34375 2.804688 -4.210938 2.515625 -3.953125 C 2.234375 -3.691406 2.09375 -3.316406 2.09375 -2.828125 C 2.09375 -2.347656 2.234375 -1.972656 2.515625 -1.703125 C 2.804688 -1.441406 3.171875 -1.3125 3.609375 -1.3125 C 4.078125 -1.3125 4.539062 -1.46875 5 -1.78125 L 5.671875 -0.59375 C 5.296875 -0.320312 4.9375 -0.132812 4.59375 -0.03125 C 4.25 0.0625 3.867188 0.109375 3.453125 0.109375 Z M 3.453125 0.109375 "/></g></g><g style="fill:#d2ac67;fill-opacity:1;"><g transform="translate(156.932991, 25.777433)"><path style="stroke:none" d="M 2.359375 -6.1875 L 0.609375 -6.1875 L 0.609375 -7.515625 L 2.359375 -7.515625 Z M 2.328125 0 L 0.640625 0 L 0.640625 -5.65625 L 2.328125 -5.65625 Z M 2.328125 0 "/></g></g><g style="fill:#d2ac67;fill-opacity:1;"><g transform="translate(159.912657, 25.777433)"><path style="stroke:none" d="M 7.890625 -5.78125 C 8.554688 -5.78125 9.054688 -5.570312 9.390625 -5.15625 C 9.734375 -4.738281 9.90625 -4.171875 9.90625 -3.453125 L 9.90625 0 L 8.21875 0 L 8.21875 -3.125 C 8.21875 -3.5 8.140625 -3.785156 7.984375 -3.984375 C 7.828125 -4.179688 7.613281 -4.28125 7.34375 -4.28125 C 7.039062 -4.28125 6.785156 -4.191406 6.578125 -4.015625 C 6.367188 -3.835938 6.21875 -3.613281 6.125 -3.34375 L 6.125 0 L 4.4375 0 L 4.4375 -3.125 C 4.4375 -3.539062 4.359375 -3.835938 4.203125 -4.015625 C 4.054688 -4.191406 3.847656 -4.28125 3.578125 -4.28125 C 3.273438 -4.28125 3.015625 -4.1875 2.796875 -4 C 2.585938 -3.8125 2.429688 -3.582031 2.328125 -3.3125 L 2.328125 0 L 0.640625 0 L 0.640625 -5.65625 L 2.328125 -5.65625 L 2.328125 -4.9375 C 2.523438 -5.195312 2.769531 -5.398438 3.0625 -5.546875 C 3.363281 -5.703125 3.710938 -5.78125 4.109375 -5.78125 C 4.523438 -5.78125 4.878906 -5.691406 5.171875 -5.515625 C 5.460938 -5.347656 5.6875 -5.109375 5.84375 -4.796875 C 6.0625 -5.097656 6.347656 -5.335938 6.703125 -5.515625 C 7.066406 -5.691406 7.460938 -5.78125 7.890625 -5.78125 Z M 7.890625 -5.78125 "/></g></g><g style="fill:#d2ac67;fill-opacity:1;"><g transform="translate(170.387567, 25.777433)"><path style="stroke:none" d="M 6.078125 -2.328125 L 2.078125 -2.328125 C 2.160156 -1.953125 2.34375 -1.675781 2.625 -1.5 C 2.90625 -1.332031 3.253906 -1.25 3.671875 -1.25 C 3.921875 -1.25 4.1875 -1.285156 4.46875 -1.359375 C 4.75 -1.429688 5.003906 -1.539062 5.234375 -1.6875 L 5.625 -0.453125 C 5.300781 -0.242188 4.972656 -0.09375 4.640625 0 C 4.304688 0.0820312 3.9375 0.125 3.53125 0.125 C 2.925781 0.125 2.382812 0 1.90625 -0.25 C 1.4375 -0.5 1.0625 -0.847656 0.78125 -1.296875 C 0.507812 -1.742188 0.375 -2.253906 0.375 -2.828125 C 0.375 -3.398438 0.503906 -3.90625 0.765625 -4.34375 C 1.023438 -4.789062 1.382812 -5.140625 1.84375 -5.390625 C 2.300781 -5.648438 2.835938 -5.78125 3.453125 -5.78125 C 4.003906 -5.78125 4.488281 -5.671875 4.90625 -5.453125 C 5.320312 -5.234375 5.648438 -4.9375 5.890625 -4.5625 C 6.140625 -4.195312 6.265625 -3.773438 6.265625 -3.296875 C 6.265625 -3.117188 6.242188 -2.953125 6.203125 -2.796875 C 6.171875 -2.640625 6.128906 -2.484375 6.078125 -2.328125 Z M 3.40625 -4.421875 C 3.039062 -4.421875 2.742188 -4.320312 2.515625 -4.125 C 2.296875 -3.9375 2.148438 -3.671875 2.078125 -3.328125 L 4.609375 -3.34375 C 4.585938 -3.695312 4.46875 -3.960938 4.25 -4.140625 C 4.039062 -4.328125 3.757812 -4.421875 3.40625 -4.421875 Z M 3.40625 -4.421875 "/></g></g><g style="fill:#d2ac67;fill-opacity:1;"><g transform="translate(177.032939, 25.777433)"><path style="stroke:none" d="M 4.203125 -5.78125 C 4.878906 -5.78125 5.414062 -5.570312 5.8125 -5.15625 C 6.21875 -4.75 6.421875 -4.171875 6.421875 -3.421875 L 6.421875 0 L 4.734375 0 L 4.734375 -3.109375 C 4.734375 -3.890625 4.375 -4.28125 3.65625 -4.28125 C 3.34375 -4.28125 3.070312 -4.1875 2.84375 -4 C 2.613281 -3.8125 2.441406 -3.570312 2.328125 -3.28125 L 2.328125 0 L 0.640625 0 L 0.640625 -5.65625 L 2.328125 -5.65625 L 2.328125 -4.90625 C 2.523438 -5.164062 2.773438 -5.375 3.078125 -5.53125 C 3.390625 -5.695312 3.765625 -5.78125 4.203125 -5.78125 Z M 4.203125 -5.78125 "/></g></g><g style="fill:#d2ac67;fill-opacity:1;"><g transform="translate(184.02645, 25.777433)"><path style="stroke:none" d="M 3.0625 0.125 C 2.425781 0.125 1.929688 -0.0390625 1.578125 -0.375 C 1.222656 -0.71875 1.046875 -1.210938 1.046875 -1.859375 L 1.046875 -4.265625 L 0.3125 -4.265625 L 0.3125 -5.03125 L 2.0625 -6.890625 L 2.734375 -6.890625 L 2.734375 -5.65625 L 4.46875 -5.65625 L 4.46875 -4.265625 L 2.734375 -4.265625 L 2.734375 -2.09375 C 2.734375 -1.851562 2.789062 -1.664062 2.90625 -1.53125 C 3.03125 -1.40625 3.195312 -1.34375 3.40625 -1.34375 C 3.550781 -1.34375 3.703125 -1.359375 3.859375 -1.390625 C 4.015625 -1.421875 4.175781 -1.472656 4.34375 -1.546875 L 4.640625 -0.265625 C 4.398438 -0.140625 4.140625 -0.046875 3.859375 0.015625 C 3.578125 0.0859375 3.3125 0.125 3.0625 0.125 Z M 3.0625 0.125 "/></g></g><g style="fill:#d2ac67;fill-opacity:1;"><g transform="translate(189.0028, 25.777433)"><path style="stroke:none" d="M 3.546875 0.125 C 2.929688 0.125 2.382812 0 1.90625 -0.25 C 1.4375 -0.507812 1.0625 -0.863281 0.78125 -1.3125 C 0.507812 -1.757812 0.375 -2.265625 0.375 -2.828125 C 0.375 -3.398438 0.507812 -3.910156 0.78125 -4.359375 C 1.0625 -4.804688 1.441406 -5.15625 1.921875 -5.40625 C 2.398438 -5.65625 2.941406 -5.78125 3.546875 -5.78125 C 4.160156 -5.78125 4.703125 -5.65625 5.171875 -5.40625 C 5.648438 -5.15625 6.023438 -4.804688 6.296875 -4.359375 C 6.578125 -3.910156 6.71875 -3.40625 6.71875 -2.84375 C 6.71875 -2.28125 6.578125 -1.769531 6.296875 -1.3125 C 6.023438 -0.863281 5.648438 -0.507812 5.171875 -0.25 C 4.703125 0 4.160156 0.125 3.546875 0.125 Z M 3.546875 -1.328125 C 3.972656 -1.328125 4.320312 -1.460938 4.59375 -1.734375 C 4.863281 -2.015625 5 -2.378906 5 -2.828125 C 5 -3.285156 4.859375 -3.648438 4.578125 -3.921875 C 4.304688 -4.203125 3.960938 -4.34375 3.546875 -4.34375 C 3.128906 -4.34375 2.78125 -4.203125 2.5 -3.921875 C 2.226562 -3.648438 2.09375 -3.296875 2.09375 -2.859375 C 2.09375 -2.398438 2.226562 -2.03125 2.5 -1.75 C 2.78125 -1.46875 3.128906 -1.328125 3.546875 -1.328125 Z M 3.546875 -1.328125 "/></g></g></g></svg>