<svg xmlns="http://www.w3.org/2000/svg" xmlns:xlink="http://www.w3.org/1999/xlink" width="300" zoomAndPan="magnify" viewBox="0 0 224.87999 67.499998" height="90" preserveAspectRatio="xMidYMid meet" version="1.2"><defs><clipPath id="ec57700c20"><path d="M 0.765625 0 L 223.992188 0 L 223.992188 67.003906 L 0.765625 67.003906 Z M 0.765625 0 "/></clipPath></defs><g id="70222257fe"><g clip-rule="nonzero" clip-path="url(#ec57700c20)"><path style=" stroke:none;fill-rule:nonzero;fill:#ffffff;fill-opacity:1;" d="M 0.765625 0 L 224.113281 0 L 224.113281 67.003906 L 0.765625 67.003906 Z M 0.765625 0 "/><path style=" stroke:none;fill-rule:nonzero;fill:#edeced;fill-opacity:1;" d="M 0.765625 0 L 224.113281 0 L 224.113281 67.003906 L 0.765625 67.003906 Z M 0.765625 0 "/></g><g style="fill:#c37f49;fill-opacity:1;"><g transform="translate(5.232192, 58.04563)"><path style="stroke:none" d="M 5.03125 -0.0625 L 5.09375 -0.0625 L 5.09375 0 L 2.921875 0 L 2.921875 -0.0625 L 2.984375 -0.0625 C 3.078125 -0.0625 3.144531 -0.09375 3.1875 -0.15625 C 3.238281 -0.21875 3.265625 -0.273438 3.265625 -0.328125 C 3.265625 -0.390625 3.253906 -0.445312 3.234375 -0.5 L 2.90625 -1.34375 L 1.296875 -1.34375 L 0.953125 -0.5 C 0.929688 -0.4375 0.921875 -0.378906 0.921875 -0.328125 C 0.921875 -0.273438 0.941406 -0.21875 0.984375 -0.15625 C 1.035156 -0.09375 1.113281 -0.0625 1.21875 -0.0625 L 1.265625 -0.0625 L 1.265625 0 L -0.1875 0 L -0.1875 -0.0625 L -0.125 -0.0625 C -0.0195312 -0.0625 0.0820312 -0.09375 0.1875 -0.15625 C 0.289062 -0.226562 0.375 -0.328125 0.4375 -0.453125 L 2.015625 -4.015625 C 2.234375 -4.472656 2.347656 -4.773438 2.359375 -4.921875 L 2.421875 -4.921875 L 4.453125 -0.46875 C 4.515625 -0.332031 4.597656 -0.226562 4.703125 -0.15625 C 4.816406 -0.09375 4.925781 -0.0625 5.03125 -0.0625 Z M 1.421875 -1.625 L 2.78125 -1.625 L 2.125 -3.3125 Z M 1.421875 -1.625 "/></g></g><g style="fill:#c37f49;fill-opacity:1;"><g transform="translate(10.125249, 58.04563)"><path style="stroke:none" d="M 3.953125 -3.125 L 3.953125 -3.1875 C 3.953125 -3.382812 3.894531 -3.539062 3.78125 -3.65625 C 3.675781 -3.769531 3.523438 -3.828125 3.328125 -3.828125 L 2.546875 -3.828125 L 2.546875 -0.421875 C 2.546875 -0.316406 2.582031 -0.226562 2.65625 -0.15625 C 2.726562 -0.09375 2.816406 -0.0625 2.921875 -0.0625 L 2.984375 -0.0625 L 2.984375 0 L 1.109375 0 L 1.109375 -0.0625 L 1.171875 -0.0625 C 1.273438 -0.0625 1.363281 -0.09375 1.4375 -0.15625 C 1.507812 -0.226562 1.546875 -0.320312 1.546875 -0.4375 L 1.546875 -3.828125 L 0.765625 -3.828125 C 0.566406 -3.828125 0.410156 -3.769531 0.296875 -3.65625 C 0.191406 -3.539062 0.140625 -3.382812 0.140625 -3.1875 L 0.140625 -3.125 L 0.0625 -3.125 L 0.0625 -4.203125 C 0.125 -4.179688 0.226562 -4.160156 0.375 -4.140625 C 0.53125 -4.117188 0.664062 -4.109375 0.78125 -4.109375 L 3.3125 -4.109375 C 3.507812 -4.109375 3.671875 -4.117188 3.796875 -4.140625 C 3.929688 -4.171875 4.003906 -4.191406 4.015625 -4.203125 L 4.015625 -3.125 Z M 3.953125 -3.125 "/></g></g><g style="fill:#c37f49;fill-opacity:1;"><g transform="translate(14.218743, 58.04563)"><path style="stroke:none" d="M 3.453125 0 L 0.234375 0 L 0.234375 -0.0625 L 0.3125 -0.0625 C 0.414062 -0.0625 0.503906 -0.09375 0.578125 -0.15625 C 0.648438 -0.226562 0.6875 -0.316406 0.6875 -0.421875 L 0.6875 -3.671875 C 0.6875 -3.773438 0.648438 -3.859375 0.578125 -3.921875 C 0.503906 -3.992188 0.414062 -4.03125 0.3125 -4.03125 L 0.234375 -4.03125 L 0.234375 -4.09375 L 2.640625 -4.09375 C 2.753906 -4.09375 2.882812 -4.101562 3.03125 -4.125 C 3.175781 -4.15625 3.28125 -4.179688 3.34375 -4.203125 L 3.34375 -3.109375 L 3.28125 -3.109375 L 3.28125 -3.171875 C 3.28125 -3.367188 3.222656 -3.523438 3.109375 -3.640625 C 3.003906 -3.753906 2.851562 -3.816406 2.65625 -3.828125 L 1.671875 -3.828125 L 1.671875 -2.171875 L 2.453125 -2.171875 C 2.609375 -2.171875 2.734375 -2.21875 2.828125 -2.3125 C 2.921875 -2.414062 2.96875 -2.546875 2.96875 -2.703125 L 2.96875 -2.75 L 3.03125 -2.75 L 3.03125 -1.296875 L 2.96875 -1.296875 L 2.96875 -1.359375 C 2.96875 -1.566406 2.890625 -1.71875 2.734375 -1.8125 C 2.648438 -1.863281 2.554688 -1.890625 2.453125 -1.890625 L 1.671875 -1.890625 L 1.671875 -0.265625 L 2.5 -0.265625 C 2.78125 -0.273438 3.019531 -0.363281 3.21875 -0.53125 C 3.414062 -0.707031 3.554688 -0.945312 3.640625 -1.25 L 3.703125 -1.25 Z M 3.453125 0 "/></g></g><g style="fill:#c37f49;fill-opacity:1;"><g transform="translate(18.066218, 58.04563)"><path style="stroke:none" d="M 3.265625 -4.09375 L 5.1875 -4.09375 L 5.1875 -4.03125 L 5.0625 -4.03125 C 4.957031 -4.03125 4.867188 -4 4.796875 -3.9375 C 4.734375 -3.875 4.695312 -3.789062 4.6875 -3.6875 L 4.6875 -0.703125 C 4.6875 -0.421875 4.707031 -0.1875 4.75 0 L 4.765625 0.09375 L 4.703125 0.09375 L 1.5625 -2.671875 L 1.5625 -0.421875 C 1.570312 -0.316406 1.609375 -0.226562 1.671875 -0.15625 C 1.742188 -0.09375 1.832031 -0.0625 1.9375 -0.0625 L 2.0625 -0.0625 L 2.0625 0 L 0.140625 0 L 0.140625 -0.0625 L 0.25 -0.0625 C 0.351562 -0.0625 0.441406 -0.09375 0.515625 -0.15625 C 0.585938 -0.226562 0.625 -0.316406 0.625 -0.421875 L 0.625 -3.421875 C 0.625 -3.691406 0.609375 -3.914062 0.578125 -4.09375 L 0.5625 -4.1875 L 0.625 -4.1875 L 3.75 -1.4375 L 3.75 -3.6875 C 3.75 -3.78125 3.710938 -3.859375 3.640625 -3.921875 C 3.566406 -3.992188 3.476562 -4.03125 3.375 -4.03125 L 3.265625 -4.03125 Z M 3.265625 -4.09375 "/></g></g><g style="fill:#c37f49;fill-opacity:1;"><g transform="translate(23.389813, 58.04563)"><path style="stroke:none" d="M 4.25 -3.546875 C 4.664062 -3.191406 4.875 -2.691406 4.875 -2.046875 C 4.875 -1.398438 4.664062 -0.894531 4.25 -0.53125 C 3.832031 -0.175781 3.257812 0 2.53125 0 L 0.21875 0 L 0.21875 -0.0625 L 0.3125 -0.0625 C 0.414062 -0.0625 0.503906 -0.0976562 0.578125 -0.171875 C 0.648438 -0.242188 0.691406 -0.332031 0.703125 -0.4375 L 0.703125 -3.671875 C 0.691406 -3.773438 0.648438 -3.859375 0.578125 -3.921875 C 0.503906 -3.992188 0.414062 -4.03125 0.3125 -4.03125 L 0.21875 -4.03125 L 0.21875 -4.09375 L 2.53125 -4.09375 C 3.257812 -4.09375 3.832031 -3.910156 4.25 -3.546875 Z M 2.453125 -0.265625 C 2.878906 -0.265625 3.21875 -0.421875 3.46875 -0.734375 C 3.71875 -1.054688 3.84375 -1.492188 3.84375 -2.046875 C 3.84375 -2.597656 3.71875 -3.03125 3.46875 -3.34375 C 3.21875 -3.664062 2.878906 -3.828125 2.453125 -3.828125 L 1.6875 -3.828125 L 1.6875 -0.265625 Z M 2.453125 -0.265625 "/></g></g><g style="fill:#c37f49;fill-opacity:1;"><g transform="translate(28.501555, 58.04563)"><path style="stroke:none" d="M 0.234375 -0.0625 L 0.3125 -0.0625 C 0.425781 -0.0625 0.519531 -0.0976562 0.59375 -0.171875 C 0.664062 -0.242188 0.703125 -0.332031 0.703125 -0.4375 L 0.703125 -3.671875 C 0.703125 -3.765625 0.664062 -3.847656 0.59375 -3.921875 C 0.519531 -3.992188 0.425781 -4.03125 0.3125 -4.03125 L 0.234375 -4.03125 L 0.234375 -4.09375 L 2.171875 -4.09375 L 2.171875 -4.03125 L 2.09375 -4.03125 C 1.988281 -4.03125 1.894531 -3.992188 1.8125 -3.921875 C 1.738281 -3.859375 1.695312 -3.773438 1.6875 -3.671875 L 1.6875 -0.4375 C 1.695312 -0.320312 1.738281 -0.226562 1.8125 -0.15625 C 1.894531 -0.09375 1.988281 -0.0625 2.09375 -0.0625 L 2.171875 -0.0625 L 2.171875 0 L 0.234375 0 Z M 0.234375 -0.0625 "/></g></g><g style="fill:#c37f49;fill-opacity:1;"><g transform="translate(30.907081, 58.04563)"><path style="stroke:none" d="M 5.859375 -0.0625 L 5.953125 -0.0625 L 5.953125 0 L 4.0625 0 L 4.0625 -0.0625 L 4.15625 -0.0625 C 4.238281 -0.0625 4.296875 -0.09375 4.328125 -0.15625 C 4.367188 -0.21875 4.390625 -0.28125 4.390625 -0.34375 L 4.125 -2.296875 L 3.03125 -0.5625 C 2.863281 -0.300781 2.78125 -0.0703125 2.78125 0.125 L 2.71875 0.125 L 1.140625 -2.265625 L 0.921875 -0.34375 C 0.910156 -0.28125 0.925781 -0.21875 0.96875 -0.15625 C 1.007812 -0.09375 1.066406 -0.0625 1.140625 -0.0625 L 1.25 -0.0625 L 1.25 0 L -0.046875 0 L -0.046875 -0.0625 L 0.046875 -0.0625 C 0.160156 -0.0625 0.257812 -0.09375 0.34375 -0.15625 C 0.425781 -0.226562 0.472656 -0.320312 0.484375 -0.4375 L 1.015625 -4.1875 L 1.078125 -4.1875 L 3 -1.296875 L 4.8125 -4.1875 L 4.875 -4.1875 L 5.421875 -0.40625 C 5.441406 -0.300781 5.492188 -0.21875 5.578125 -0.15625 C 5.660156 -0.09375 5.753906 -0.0625 5.859375 -0.0625 Z M 5.859375 -0.0625 "/></g></g><g style="fill:#c37f49;fill-opacity:1;"><g transform="translate(36.804719, 58.04563)"><path style="stroke:none" d="M 3.453125 0 L 0.234375 0 L 0.234375 -0.0625 L 0.3125 -0.0625 C 0.414062 -0.0625 0.503906 -0.09375 0.578125 -0.15625 C 0.648438 -0.226562 0.6875 -0.316406 0.6875 -0.421875 L 0.6875 -3.671875 C 0.6875 -3.773438 0.648438 -3.859375 0.578125 -3.921875 C 0.503906 -3.992188 0.414062 -4.03125 0.3125 -4.03125 L 0.234375 -4.03125 L 0.234375 -4.09375 L 2.640625 -4.09375 C 2.753906 -4.09375 2.882812 -4.101562 3.03125 -4.125 C 3.175781 -4.15625 3.28125 -4.179688 3.34375 -4.203125 L 3.34375 -3.109375 L 3.28125 -3.109375 L 3.28125 -3.171875 C 3.28125 -3.367188 3.222656 -3.523438 3.109375 -3.640625 C 3.003906 -3.753906 2.851562 -3.816406 2.65625 -3.828125 L 1.671875 -3.828125 L 1.671875 -2.171875 L 2.453125 -2.171875 C 2.609375 -2.171875 2.734375 -2.21875 2.828125 -2.3125 C 2.921875 -2.414062 2.96875 -2.546875 2.96875 -2.703125 L 2.96875 -2.75 L 3.03125 -2.75 L 3.03125 -1.296875 L 2.96875 -1.296875 L 2.96875 -1.359375 C 2.96875 -1.566406 2.890625 -1.71875 2.734375 -1.8125 C 2.648438 -1.863281 2.554688 -1.890625 2.453125 -1.890625 L 1.671875 -1.890625 L 1.671875 -0.265625 L 2.5 -0.265625 C 2.78125 -0.273438 3.019531 -0.363281 3.21875 -0.53125 C 3.414062 -0.707031 3.554688 -0.945312 3.640625 -1.25 L 3.703125 -1.25 Z M 3.453125 0 "/></g></g><g style="fill:#c37f49;fill-opacity:1;"><g transform="translate(40.652194, 58.04563)"><path style="stroke:none" d="M 3.265625 -4.09375 L 5.1875 -4.09375 L 5.1875 -4.03125 L 5.0625 -4.03125 C 4.957031 -4.03125 4.867188 -4 4.796875 -3.9375 C 4.734375 -3.875 4.695312 -3.789062 4.6875 -3.6875 L 4.6875 -0.703125 C 4.6875 -0.421875 4.707031 -0.1875 4.75 0 L 4.765625 0.09375 L 4.703125 0.09375 L 1.5625 -2.671875 L 1.5625 -0.421875 C 1.570312 -0.316406 1.609375 -0.226562 1.671875 -0.15625 C 1.742188 -0.09375 1.832031 -0.0625 1.9375 -0.0625 L 2.0625 -0.0625 L 2.0625 0 L 0.140625 0 L 0.140625 -0.0625 L 0.25 -0.0625 C 0.351562 -0.0625 0.441406 -0.09375 0.515625 -0.15625 C 0.585938 -0.226562 0.625 -0.316406 0.625 -0.421875 L 0.625 -3.421875 C 0.625 -3.691406 0.609375 -3.914062 0.578125 -4.09375 L 0.5625 -4.1875 L 0.625 -4.1875 L 3.75 -1.4375 L 3.75 -3.6875 C 3.75 -3.78125 3.710938 -3.859375 3.640625 -3.921875 C 3.566406 -3.992188 3.476562 -4.03125 3.375 -4.03125 L 3.265625 -4.03125 Z M 3.265625 -4.09375 "/></g></g><g style="fill:#c37f49;fill-opacity:1;"><g transform="translate(45.975789, 58.04563)"><path style="stroke:none" d="M 3.953125 -3.125 L 3.953125 -3.1875 C 3.953125 -3.382812 3.894531 -3.539062 3.78125 -3.65625 C 3.675781 -3.769531 3.523438 -3.828125 3.328125 -3.828125 L 2.546875 -3.828125 L 2.546875 -0.421875 C 2.546875 -0.316406 2.582031 -0.226562 2.65625 -0.15625 C 2.726562 -0.09375 2.816406 -0.0625 2.921875 -0.0625 L 2.984375 -0.0625 L 2.984375 0 L 1.109375 0 L 1.109375 -0.0625 L 1.171875 -0.0625 C 1.273438 -0.0625 1.363281 -0.09375 1.4375 -0.15625 C 1.507812 -0.226562 1.546875 -0.320312 1.546875 -0.4375 L 1.546875 -3.828125 L 0.765625 -3.828125 C 0.566406 -3.828125 0.410156 -3.769531 0.296875 -3.65625 C 0.191406 -3.539062 0.140625 -3.382812 0.140625 -3.1875 L 0.140625 -3.125 L 0.0625 -3.125 L 0.0625 -4.203125 C 0.125 -4.179688 0.226562 -4.160156 0.375 -4.140625 C 0.53125 -4.117188 0.664062 -4.109375 0.78125 -4.109375 L 3.3125 -4.109375 C 3.507812 -4.109375 3.671875 -4.117188 3.796875 -4.140625 C 3.929688 -4.171875 4.003906 -4.191406 4.015625 -4.203125 L 4.015625 -3.125 Z M 3.953125 -3.125 "/></g></g><g style="fill:#c37f49;fill-opacity:1;"><g transform="translate(50.069283, 58.04563)"><path style="stroke:none" d="M 0.234375 -2.046875 C 0.234375 -2.703125 0.453125 -3.222656 0.890625 -3.609375 C 1.335938 -3.992188 1.925781 -4.1875 2.65625 -4.1875 C 3.382812 -4.1875 3.96875 -3.992188 4.40625 -3.609375 C 4.851562 -3.222656 5.078125 -2.703125 5.078125 -2.046875 C 5.078125 -1.390625 4.851562 -0.867188 4.40625 -0.484375 C 3.96875 -0.0976562 3.382812 0.09375 2.65625 0.09375 C 1.925781 0.09375 1.335938 -0.0976562 0.890625 -0.484375 C 0.453125 -0.867188 0.234375 -1.390625 0.234375 -2.046875 Z M 1.28125 -2.046875 C 1.28125 -1.472656 1.40625 -1.019531 1.65625 -0.6875 C 1.90625 -0.351562 2.238281 -0.1875 2.65625 -0.1875 C 3.070312 -0.1875 3.398438 -0.351562 3.640625 -0.6875 C 3.890625 -1.019531 4.015625 -1.472656 4.015625 -2.046875 C 4.015625 -2.617188 3.890625 -3.070312 3.640625 -3.40625 C 3.398438 -3.738281 3.070312 -3.90625 2.65625 -3.90625 C 2.238281 -3.90625 1.90625 -3.738281 1.65625 -3.40625 C 1.40625 -3.070312 1.28125 -2.617188 1.28125 -2.046875 Z M 1.28125 -2.046875 "/></g></g><g style="fill:#c37f49;fill-opacity:1;"><g transform="translate(55.37921, 58.04563)"><path style="stroke:none" d=""/></g></g><g style="fill:#c37f49;fill-opacity:1;"><g transform="translate(57.087682, 58.04563)"><path style="stroke:none" d="M 3.6875 -2.265625 C 3.457031 -1.867188 3.097656 -1.671875 2.609375 -1.671875 C 2.367188 -1.671875 2.128906 -1.75 1.890625 -1.90625 L 1.890625 -1.953125 C 2.347656 -1.953125 2.640625 -2.1875 2.765625 -2.65625 C 2.796875 -2.757812 2.8125 -2.84375 2.8125 -2.90625 C 2.8125 -3.21875 2.734375 -3.445312 2.578125 -3.59375 C 2.429688 -3.75 2.234375 -3.828125 1.984375 -3.828125 L 1.671875 -3.828125 L 1.671875 -0.4375 C 1.679688 -0.289062 1.742188 -0.179688 1.859375 -0.109375 C 1.910156 -0.078125 1.972656 -0.0625 2.046875 -0.0625 L 2.125 -0.0625 L 2.125 0 L 0.234375 0 L 0.234375 -0.0625 L 0.328125 -0.0625 C 0.421875 -0.0625 0.503906 -0.09375 0.578125 -0.15625 C 0.648438 -0.226562 0.6875 -0.316406 0.6875 -0.421875 L 0.6875 -3.671875 C 0.6875 -3.773438 0.648438 -3.859375 0.578125 -3.921875 C 0.503906 -3.992188 0.414062 -4.03125 0.3125 -4.03125 L 0.234375 -4.03125 L 0.234375 -4.09375 L 2.25 -4.09375 C 2.769531 -4.09375 3.160156 -3.988281 3.421875 -3.78125 C 3.703125 -3.570312 3.84375 -3.28125 3.84375 -2.90625 C 3.84375 -2.664062 3.789062 -2.453125 3.6875 -2.265625 Z M 3.6875 -2.265625 "/></g></g><g style="fill:#c37f49;fill-opacity:1;"><g transform="translate(61.085504, 58.04563)"><path style="stroke:none" d="M 4.546875 -0.0625 L 4.59375 -0.0625 L 4.59375 0 L 2.59375 0 L 2.59375 -0.0625 L 2.640625 -0.0625 C 2.734375 -0.0625 2.800781 -0.0859375 2.84375 -0.140625 C 2.882812 -0.203125 2.90625 -0.253906 2.90625 -0.296875 C 2.90625 -0.347656 2.894531 -0.394531 2.875 -0.4375 L 2.609375 -1.078125 L 1.15625 -1.078125 L 0.890625 -0.4375 C 0.867188 -0.394531 0.859375 -0.347656 0.859375 -0.296875 C 0.859375 -0.242188 0.878906 -0.191406 0.921875 -0.140625 C 0.960938 -0.0859375 1.03125 -0.0625 1.125 -0.0625 L 1.1875 -0.0625 L 1.1875 0 L -0.1875 0 L -0.1875 -0.0625 L -0.125 -0.0625 C -0.03125 -0.0625 0.0625 -0.09375 0.15625 -0.15625 C 0.25 -0.21875 0.328125 -0.304688 0.390625 -0.421875 L 1.796875 -3.453125 C 2.003906 -3.898438 2.109375 -4.175781 2.109375 -4.28125 L 2.171875 -4.28125 L 4.015625 -0.453125 C 4.066406 -0.316406 4.140625 -0.21875 4.234375 -0.15625 C 4.335938 -0.09375 4.441406 -0.0625 4.546875 -0.0625 Z M 1.28125 -1.34375 L 2.5 -1.34375 L 1.890625 -2.765625 Z M 1.28125 -1.34375 "/></g></g><g style="fill:#c37f49;fill-opacity:1;"><g transform="translate(65.486524, 58.04563)"><path style="stroke:none" d="M 1.9375 -3.8125 L 1.71875 -3.8125 L 1.71875 -0.4375 C 1.71875 -0.320312 1.753906 -0.226562 1.828125 -0.15625 C 1.898438 -0.09375 1.984375 -0.0625 2.078125 -0.0625 L 2.15625 -0.0625 L 2.15625 0 L 0.28125 0 L 0.28125 -0.0625 L 0.359375 -0.0625 C 0.460938 -0.0625 0.546875 -0.09375 0.609375 -0.15625 C 0.679688 -0.226562 0.71875 -0.316406 0.71875 -0.421875 L 0.71875 -3.671875 C 0.71875 -3.773438 0.679688 -3.859375 0.609375 -3.921875 C 0.546875 -3.992188 0.46875 -4.03125 0.375 -4.03125 L 0.28125 -4.03125 L 0.28125 -4.09375 L 2.375 -4.09375 C 2.78125 -4.09375 3.125 -4.015625 3.40625 -3.859375 C 3.71875 -3.679688 3.875 -3.390625 3.875 -2.984375 C 3.875 -2.710938 3.789062 -2.472656 3.625 -2.265625 C 3.46875 -2.054688 3.234375 -1.925781 2.921875 -1.875 C 3.046875 -1.832031 3.164062 -1.753906 3.28125 -1.640625 C 3.40625 -1.523438 3.503906 -1.410156 3.578125 -1.296875 C 3.722656 -1.035156 3.875 -0.796875 4.03125 -0.578125 C 4.195312 -0.367188 4.328125 -0.226562 4.421875 -0.15625 C 4.515625 -0.09375 4.632812 -0.0625 4.78125 -0.0625 L 4.78125 0 L 4.203125 0 C 3.828125 0 3.535156 -0.0390625 3.328125 -0.125 C 3.128906 -0.21875 2.953125 -0.394531 2.796875 -0.65625 C 2.546875 -1.050781 2.390625 -1.359375 2.328125 -1.578125 C 2.273438 -1.710938 2.210938 -1.816406 2.140625 -1.890625 C 2.066406 -1.960938 1.992188 -2 1.921875 -2 L 1.921875 -2.0625 L 2.09375 -2.0625 C 2.476562 -2.0625 2.71875 -2.289062 2.8125 -2.75 C 2.820312 -2.8125 2.828125 -2.867188 2.828125 -2.921875 C 2.828125 -2.972656 2.820312 -3.039062 2.8125 -3.125 C 2.8125 -3.21875 2.785156 -3.316406 2.734375 -3.421875 C 2.679688 -3.535156 2.617188 -3.617188 2.546875 -3.671875 C 2.398438 -3.753906 2.253906 -3.800781 2.109375 -3.8125 C 2.054688 -3.8125 2 -3.8125 1.9375 -3.8125 Z M 1.9375 -3.8125 "/></g></g><g style="fill:#c37f49;fill-opacity:1;"><g transform="translate(69.976384, 58.04563)"><path style="stroke:none" d="M 4.546875 -0.0625 L 4.59375 -0.0625 L 4.59375 0 L 2.59375 0 L 2.59375 -0.0625 L 2.640625 -0.0625 C 2.734375 -0.0625 2.800781 -0.0859375 2.84375 -0.140625 C 2.882812 -0.203125 2.90625 -0.253906 2.90625 -0.296875 C 2.90625 -0.347656 2.894531 -0.394531 2.875 -0.4375 L 2.609375 -1.078125 L 1.15625 -1.078125 L 0.890625 -0.4375 C 0.867188 -0.394531 0.859375 -0.347656 0.859375 -0.296875 C 0.859375 -0.242188 0.878906 -0.191406 0.921875 -0.140625 C 0.960938 -0.0859375 1.03125 -0.0625 1.125 -0.0625 L 1.1875 -0.0625 L 1.1875 0 L -0.1875 0 L -0.1875 -0.0625 L -0.125 -0.0625 C -0.03125 -0.0625 0.0625 -0.09375 0.15625 -0.15625 C 0.25 -0.21875 0.328125 -0.304688 0.390625 -0.421875 L 1.796875 -3.453125 C 2.003906 -3.898438 2.109375 -4.175781 2.109375 -4.28125 L 2.171875 -4.28125 L 4.015625 -0.453125 C 4.066406 -0.316406 4.140625 -0.21875 4.234375 -0.15625 C 4.335938 -0.09375 4.441406 -0.0625 4.546875 -0.0625 Z M 1.28125 -1.34375 L 2.5 -1.34375 L 1.890625 -2.765625 Z M 1.28125 -1.34375 "/></g></g><g style="fill:#c37f49;fill-opacity:1;"><g transform="translate(74.377403, 58.04563)"><path style="stroke:none" d=""/></g></g><g style="fill:#c37f49;fill-opacity:1;"><g transform="translate(76.085875, 58.04563)"><path style="stroke:none" d="M 3.953125 -3.125 L 3.953125 -3.1875 C 3.953125 -3.382812 3.894531 -3.539062 3.78125 -3.65625 C 3.675781 -3.769531 3.523438 -3.828125 3.328125 -3.828125 L 2.546875 -3.828125 L 2.546875 -0.421875 C 2.546875 -0.316406 2.582031 -0.226562 2.65625 -0.15625 C 2.726562 -0.09375 2.816406 -0.0625 2.921875 -0.0625 L 2.984375 -0.0625 L 2.984375 0 L 1.109375 0 L 1.109375 -0.0625 L 1.171875 -0.0625 C 1.273438 -0.0625 1.363281 -0.09375 1.4375 -0.15625 C 1.507812 -0.226562 1.546875 -0.320312 1.546875 -0.4375 L 1.546875 -3.828125 L 0.765625 -3.828125 C 0.566406 -3.828125 0.410156 -3.769531 0.296875 -3.65625 C 0.191406 -3.539062 0.140625 -3.382812 0.140625 -3.1875 L 0.140625 -3.125 L 0.0625 -3.125 L 0.0625 -4.203125 C 0.125 -4.179688 0.226562 -4.160156 0.375 -4.140625 C 0.53125 -4.117188 0.664062 -4.109375 0.78125 -4.109375 L 3.3125 -4.109375 C 3.507812 -4.109375 3.671875 -4.117188 3.796875 -4.140625 C 3.929688 -4.171875 4.003906 -4.191406 4.015625 -4.203125 L 4.015625 -3.125 Z M 3.953125 -3.125 "/></g></g><g style="fill:#c37f49;fill-opacity:1;"><g transform="translate(80.179369, 58.04563)"><path style="stroke:none" d="M 0.234375 -2.046875 C 0.234375 -2.703125 0.453125 -3.222656 0.890625 -3.609375 C 1.335938 -3.992188 1.925781 -4.1875 2.65625 -4.1875 C 3.382812 -4.1875 3.96875 -3.992188 4.40625 -3.609375 C 4.851562 -3.222656 5.078125 -2.703125 5.078125 -2.046875 C 5.078125 -1.390625 4.851562 -0.867188 4.40625 -0.484375 C 3.96875 -0.0976562 3.382812 0.09375 2.65625 0.09375 C 1.925781 0.09375 1.335938 -0.0976562 0.890625 -0.484375 C 0.453125 -0.867188 0.234375 -1.390625 0.234375 -2.046875 Z M 1.28125 -2.046875 C 1.28125 -1.472656 1.40625 -1.019531 1.65625 -0.6875 C 1.90625 -0.351562 2.238281 -0.1875 2.65625 -0.1875 C 3.070312 -0.1875 3.398438 -0.351562 3.640625 -0.6875 C 3.890625 -1.019531 4.015625 -1.472656 4.015625 -2.046875 C 4.015625 -2.617188 3.890625 -3.070312 3.640625 -3.40625 C 3.398438 -3.738281 3.070312 -3.90625 2.65625 -3.90625 C 2.238281 -3.90625 1.90625 -3.738281 1.65625 -3.40625 C 1.40625 -3.070312 1.28125 -2.617188 1.28125 -2.046875 Z M 1.28125 -2.046875 "/></g></g><g style="fill:#c37f49;fill-opacity:1;"><g transform="translate(85.489296, 58.04563)"><path style="stroke:none" d="M 4.25 -3.546875 C 4.664062 -3.191406 4.875 -2.691406 4.875 -2.046875 C 4.875 -1.398438 4.664062 -0.894531 4.25 -0.53125 C 3.832031 -0.175781 3.257812 0 2.53125 0 L 0.21875 0 L 0.21875 -0.0625 L 0.3125 -0.0625 C 0.414062 -0.0625 0.503906 -0.0976562 0.578125 -0.171875 C 0.648438 -0.242188 0.691406 -0.332031 0.703125 -0.4375 L 0.703125 -3.671875 C 0.691406 -3.773438 0.648438 -3.859375 0.578125 -3.921875 C 0.503906 -3.992188 0.414062 -4.03125 0.3125 -4.03125 L 0.21875 -4.03125 L 0.21875 -4.09375 L 2.53125 -4.09375 C 3.257812 -4.09375 3.832031 -3.910156 4.25 -3.546875 Z M 2.453125 -0.265625 C 2.878906 -0.265625 3.21875 -0.421875 3.46875 -0.734375 C 3.71875 -1.054688 3.84375 -1.492188 3.84375 -2.046875 C 3.84375 -2.597656 3.71875 -3.03125 3.46875 -3.34375 C 3.21875 -3.664062 2.878906 -3.828125 2.453125 -3.828125 L 1.6875 -3.828125 L 1.6875 -0.265625 Z M 2.453125 -0.265625 "/></g></g><g style="fill:#c37f49;fill-opacity:1;"><g transform="translate(90.601038, 58.04563)"><path style="stroke:none" d="M 0.234375 -2.046875 C 0.234375 -2.703125 0.453125 -3.222656 0.890625 -3.609375 C 1.335938 -3.992188 1.925781 -4.1875 2.65625 -4.1875 C 3.382812 -4.1875 3.96875 -3.992188 4.40625 -3.609375 C 4.851562 -3.222656 5.078125 -2.703125 5.078125 -2.046875 C 5.078125 -1.390625 4.851562 -0.867188 4.40625 -0.484375 C 3.96875 -0.0976562 3.382812 0.09375 2.65625 0.09375 C 1.925781 0.09375 1.335938 -0.0976562 0.890625 -0.484375 C 0.453125 -0.867188 0.234375 -1.390625 0.234375 -2.046875 Z M 1.28125 -2.046875 C 1.28125 -1.472656 1.40625 -1.019531 1.65625 -0.6875 C 1.90625 -0.351562 2.238281 -0.1875 2.65625 -0.1875 C 3.070312 -0.1875 3.398438 -0.351562 3.640625 -0.6875 C 3.890625 -1.019531 4.015625 -1.472656 4.015625 -2.046875 C 4.015625 -2.617188 3.890625 -3.070312 3.640625 -3.40625 C 3.398438 -3.738281 3.070312 -3.90625 2.65625 -3.90625 C 2.238281 -3.90625 1.90625 -3.738281 1.65625 -3.40625 C 1.40625 -3.070312 1.28125 -2.617188 1.28125 -2.046875 Z M 1.28125 -2.046875 "/></g></g><g style="fill:#c37f49;fill-opacity:1;"><g transform="translate(95.910965, 58.04563)"><path style="stroke:none" d=""/></g></g><g style="fill:#c37f49;fill-opacity:1;"><g transform="translate(97.619437, 58.04563)"><path style="stroke:none" d="M 3.625 -3.078125 C 3.625 -2.910156 3.585938 -2.765625 3.515625 -2.640625 C 3.367188 -2.390625 3.15625 -2.253906 2.875 -2.234375 C 3.175781 -2.210938 3.425781 -2.101562 3.625 -1.90625 C 3.832031 -1.71875 3.9375 -1.472656 3.9375 -1.171875 C 3.9375 -0.578125 3.582031 -0.207031 2.875 -0.0625 C 2.675781 -0.0195312 2.457031 0 2.21875 0 L 0.25 0 L 0.25 -0.0625 L 0.328125 -0.0625 C 0.429688 -0.0625 0.515625 -0.09375 0.578125 -0.15625 C 0.648438 -0.226562 0.691406 -0.320312 0.703125 -0.4375 L 0.703125 -3.671875 C 0.691406 -3.828125 0.613281 -3.9375 0.46875 -4 C 0.414062 -4.019531 0.367188 -4.03125 0.328125 -4.03125 L 0.25 -4.03125 L 0.25 -4.09375 L 2.078125 -4.09375 C 3.109375 -4.09375 3.625 -3.753906 3.625 -3.078125 Z M 2.828125 -1.234375 C 2.828125 -1.441406 2.785156 -1.613281 2.703125 -1.75 C 2.546875 -2.03125 2.269531 -2.171875 1.875 -2.171875 C 1.875 -2.171875 1.867188 -2.171875 1.859375 -2.171875 L 1.859375 -2.21875 C 2.078125 -2.21875 2.253906 -2.28125 2.390625 -2.40625 C 2.523438 -2.539062 2.59375 -2.742188 2.59375 -3.015625 C 2.59375 -3.554688 2.347656 -3.828125 1.859375 -3.828125 L 1.671875 -3.828125 L 1.671875 -0.265625 L 1.9375 -0.265625 C 2.195312 -0.265625 2.410156 -0.34375 2.578125 -0.5 C 2.742188 -0.65625 2.828125 -0.898438 2.828125 -1.234375 Z M 2.828125 -1.234375 "/></g></g><g style="fill:#c37f49;fill-opacity:1;"><g transform="translate(101.747097, 58.04563)"><path style="stroke:none" d="M 1.9375 -3.8125 L 1.71875 -3.8125 L 1.71875 -0.4375 C 1.71875 -0.320312 1.753906 -0.226562 1.828125 -0.15625 C 1.898438 -0.09375 1.984375 -0.0625 2.078125 -0.0625 L 2.15625 -0.0625 L 2.15625 0 L 0.28125 0 L 0.28125 -0.0625 L 0.359375 -0.0625 C 0.460938 -0.0625 0.546875 -0.09375 0.609375 -0.15625 C 0.679688 -0.226562 0.71875 -0.316406 0.71875 -0.421875 L 0.71875 -3.671875 C 0.71875 -3.773438 0.679688 -3.859375 0.609375 -3.921875 C 0.546875 -3.992188 0.46875 -4.03125 0.375 -4.03125 L 0.28125 -4.03125 L 0.28125 -4.09375 L 2.375 -4.09375 C 2.78125 -4.09375 3.125 -4.015625 3.40625 -3.859375 C 3.71875 -3.679688 3.875 -3.390625 3.875 -2.984375 C 3.875 -2.710938 3.789062 -2.472656 3.625 -2.265625 C 3.46875 -2.054688 3.234375 -1.925781 2.921875 -1.875 C 3.046875 -1.832031 3.164062 -1.753906 3.28125 -1.640625 C 3.40625 -1.523438 3.503906 -1.410156 3.578125 -1.296875 C 3.722656 -1.035156 3.875 -0.796875 4.03125 -0.578125 C 4.195312 -0.367188 4.328125 -0.226562 4.421875 -0.15625 C 4.515625 -0.09375 4.632812 -0.0625 4.78125 -0.0625 L 4.78125 0 L 4.203125 0 C 3.828125 0 3.535156 -0.0390625 3.328125 -0.125 C 3.128906 -0.21875 2.953125 -0.394531 2.796875 -0.65625 C 2.546875 -1.050781 2.390625 -1.359375 2.328125 -1.578125 C 2.273438 -1.710938 2.210938 -1.816406 2.140625 -1.890625 C 2.066406 -1.960938 1.992188 -2 1.921875 -2 L 1.921875 -2.0625 L 2.09375 -2.0625 C 2.476562 -2.0625 2.71875 -2.289062 2.8125 -2.75 C 2.820312 -2.8125 2.828125 -2.867188 2.828125 -2.921875 C 2.828125 -2.972656 2.820312 -3.039062 2.8125 -3.125 C 2.8125 -3.21875 2.785156 -3.316406 2.734375 -3.421875 C 2.679688 -3.535156 2.617188 -3.617188 2.546875 -3.671875 C 2.398438 -3.753906 2.253906 -3.800781 2.109375 -3.8125 C 2.054688 -3.8125 2 -3.8125 1.9375 -3.8125 Z M 1.9375 -3.8125 "/></g></g><g style="fill:#c37f49;fill-opacity:1;"><g transform="translate(106.236968, 58.04563)"><path style="stroke:none" d="M 4.546875 -0.0625 L 4.59375 -0.0625 L 4.59375 0 L 2.59375 0 L 2.59375 -0.0625 L 2.640625 -0.0625 C 2.734375 -0.0625 2.800781 -0.0859375 2.84375 -0.140625 C 2.882812 -0.203125 2.90625 -0.253906 2.90625 -0.296875 C 2.90625 -0.347656 2.894531 -0.394531 2.875 -0.4375 L 2.609375 -1.078125 L 1.15625 -1.078125 L 0.890625 -0.4375 C 0.867188 -0.394531 0.859375 -0.347656 0.859375 -0.296875 C 0.859375 -0.242188 0.878906 -0.191406 0.921875 -0.140625 C 0.960938 -0.0859375 1.03125 -0.0625 1.125 -0.0625 L 1.1875 -0.0625 L 1.1875 0 L -0.1875 0 L -0.1875 -0.0625 L -0.125 -0.0625 C -0.03125 -0.0625 0.0625 -0.09375 0.15625 -0.15625 C 0.25 -0.21875 0.328125 -0.304688 0.390625 -0.421875 L 1.796875 -3.453125 C 2.003906 -3.898438 2.109375 -4.175781 2.109375 -4.28125 L 2.171875 -4.28125 L 4.015625 -0.453125 C 4.066406 -0.316406 4.140625 -0.21875 4.234375 -0.15625 C 4.335938 -0.09375 4.441406 -0.0625 4.546875 -0.0625 Z M 1.28125 -1.34375 L 2.5 -1.34375 L 1.890625 -2.765625 Z M 1.28125 -1.34375 "/></g></g><g style="fill:#c37f49;fill-opacity:1;"><g transform="translate(110.637976, 58.04563)"><path style="stroke:none" d="M 0.3125 -0.5625 C 0.3125 -0.851562 0.378906 -1.101562 0.515625 -1.3125 L 0.5625 -1.3125 C 0.5625 -1.28125 0.5625 -1.253906 0.5625 -1.234375 C 0.5625 -0.953125 0.660156 -0.707031 0.859375 -0.5 C 1.054688 -0.289062 1.332031 -0.1875 1.6875 -0.1875 C 1.9375 -0.1875 2.128906 -0.242188 2.265625 -0.359375 C 2.410156 -0.484375 2.484375 -0.613281 2.484375 -0.75 C 2.484375 -0.894531 2.441406 -1.015625 2.359375 -1.109375 C 2.285156 -1.203125 2.15625 -1.304688 1.96875 -1.421875 L 1 -2.03125 C 0.59375 -2.289062 0.390625 -2.617188 0.390625 -3.015625 C 0.390625 -3.054688 0.390625 -3.097656 0.390625 -3.140625 C 0.421875 -3.460938 0.546875 -3.71875 0.765625 -3.90625 C 0.992188 -4.09375 1.257812 -4.1875 1.5625 -4.1875 C 1.863281 -4.1875 2.179688 -4.164062 2.515625 -4.125 L 2.890625 -4.125 L 2.796875 -3.21875 L 2.734375 -3.21875 C 2.734375 -3.4375 2.65625 -3.601562 2.5 -3.71875 C 2.351562 -3.84375 2.160156 -3.90625 1.921875 -3.90625 C 1.679688 -3.90625 1.488281 -3.851562 1.34375 -3.75 C 1.207031 -3.65625 1.140625 -3.523438 1.140625 -3.359375 C 1.140625 -3.210938 1.207031 -3.09375 1.34375 -3 C 1.394531 -2.957031 1.472656 -2.90625 1.578125 -2.84375 L 2.65625 -2.171875 C 3.03125 -1.941406 3.21875 -1.628906 3.21875 -1.234375 C 3.21875 -0.804688 3.066406 -0.476562 2.765625 -0.25 C 2.472656 -0.0195312 2.09375 0.09375 1.625 0.09375 C 1.332031 0.09375 1.070312 0.0625 0.84375 0 C 0.625 -0.0703125 0.460938 -0.160156 0.359375 -0.265625 C 0.328125 -0.347656 0.3125 -0.445312 0.3125 -0.5625 Z M 0.3125 -0.5625 "/></g></g><g style="fill:#c37f49;fill-opacity:1;"><g transform="translate(114.150597, 58.04563)"><path style="stroke:none" d="M 0.234375 -0.0625 L 0.3125 -0.0625 C 0.425781 -0.0625 0.519531 -0.0976562 0.59375 -0.171875 C 0.664062 -0.242188 0.703125 -0.332031 0.703125 -0.4375 L 0.703125 -3.671875 C 0.703125 -3.765625 0.664062 -3.847656 0.59375 -3.921875 C 0.519531 -3.992188 0.425781 -4.03125 0.3125 -4.03125 L 0.234375 -4.03125 L 0.234375 -4.09375 L 2.171875 -4.09375 L 2.171875 -4.03125 L 2.09375 -4.03125 C 1.988281 -4.03125 1.894531 -3.992188 1.8125 -3.921875 C 1.738281 -3.859375 1.695312 -3.773438 1.6875 -3.671875 L 1.6875 -0.4375 C 1.695312 -0.320312 1.738281 -0.226562 1.8125 -0.15625 C 1.894531 -0.09375 1.988281 -0.0625 2.09375 -0.0625 L 2.171875 -0.0625 L 2.171875 0 L 0.234375 0 Z M 0.234375 -0.0625 "/></g></g><g style="fill:#c37f49;fill-opacity:1;"><g transform="translate(116.556129, 58.04563)"><path style="stroke:none" d="M 0.234375 0 L 0.234375 -0.0625 L 0.3125 -0.0625 C 0.414062 -0.0625 0.503906 -0.09375 0.578125 -0.15625 C 0.648438 -0.226562 0.6875 -0.316406 0.6875 -0.421875 L 0.6875 -3.671875 C 0.6875 -3.765625 0.648438 -3.847656 0.578125 -3.921875 C 0.503906 -3.992188 0.414062 -4.03125 0.3125 -4.03125 L 0.234375 -4.03125 L 0.234375 -4.09375 L 2.125 -4.09375 L 2.125 -4.03125 L 2.046875 -4.03125 C 1.941406 -4.03125 1.851562 -3.992188 1.78125 -3.921875 C 1.707031 -3.859375 1.671875 -3.773438 1.671875 -3.671875 L 1.671875 -0.265625 L 2.5 -0.265625 C 2.78125 -0.273438 3.015625 -0.363281 3.203125 -0.53125 C 3.398438 -0.707031 3.546875 -0.945312 3.640625 -1.25 L 3.71875 -1.25 L 3.453125 0 Z M 0.234375 0 "/></g></g><g style="fill:#c37f49;fill-opacity:1;"><g transform="translate(120.30109, 58.04563)"><path style="stroke:none" d=""/></g></g><g style="fill:#c37f49;fill-opacity:1;"><g transform="translate(122.009556, 58.04563)"><path style="stroke:none" d="M 3.453125 0 L 0.234375 0 L 0.234375 -0.0625 L 0.3125 -0.0625 C 0.414062 -0.0625 0.503906 -0.09375 0.578125 -0.15625 C 0.648438 -0.226562 0.6875 -0.316406 0.6875 -0.421875 L 0.6875 -3.671875 C 0.6875 -3.773438 0.648438 -3.859375 0.578125 -3.921875 C 0.503906 -3.992188 0.414062 -4.03125 0.3125 -4.03125 L 0.234375 -4.03125 L 0.234375 -4.09375 L 2.640625 -4.09375 C 2.753906 -4.09375 2.882812 -4.101562 3.03125 -4.125 C 3.175781 -4.15625 3.28125 -4.179688 3.34375 -4.203125 L 3.34375 -3.109375 L 3.28125 -3.109375 L 3.28125 -3.171875 C 3.28125 -3.367188 3.222656 -3.523438 3.109375 -3.640625 C 3.003906 -3.753906 2.851562 -3.816406 2.65625 -3.828125 L 1.671875 -3.828125 L 1.671875 -2.171875 L 2.453125 -2.171875 C 2.609375 -2.171875 2.734375 -2.21875 2.828125 -2.3125 C 2.921875 -2.414062 2.96875 -2.546875 2.96875 -2.703125 L 2.96875 -2.75 L 3.03125 -2.75 L 3.03125 -1.296875 L 2.96875 -1.296875 L 2.96875 -1.359375 C 2.96875 -1.566406 2.890625 -1.71875 2.734375 -1.8125 C 2.648438 -1.863281 2.554688 -1.890625 2.453125 -1.890625 L 1.671875 -1.890625 L 1.671875 -0.265625 L 2.5 -0.265625 C 2.78125 -0.273438 3.019531 -0.363281 3.21875 -0.53125 C 3.414062 -0.707031 3.554688 -0.945312 3.640625 -1.25 L 3.703125 -1.25 Z M 3.453125 0 "/></g></g><g style="fill:#c37f49;fill-opacity:1;"><g transform="translate(125.857042, 58.04563)"><path style="stroke:none" d=""/></g></g><g style="fill:#c37f49;fill-opacity:1;"><g transform="translate(127.565508, 58.04563)"><path style="stroke:none" d="M 3.625 -3.078125 C 3.625 -2.910156 3.585938 -2.765625 3.515625 -2.640625 C 3.367188 -2.390625 3.15625 -2.253906 2.875 -2.234375 C 3.175781 -2.210938 3.425781 -2.101562 3.625 -1.90625 C 3.832031 -1.71875 3.9375 -1.472656 3.9375 -1.171875 C 3.9375 -0.578125 3.582031 -0.207031 2.875 -0.0625 C 2.675781 -0.0195312 2.457031 0 2.21875 0 L 0.25 0 L 0.25 -0.0625 L 0.328125 -0.0625 C 0.429688 -0.0625 0.515625 -0.09375 0.578125 -0.15625 C 0.648438 -0.226562 0.691406 -0.320312 0.703125 -0.4375 L 0.703125 -3.671875 C 0.691406 -3.828125 0.613281 -3.9375 0.46875 -4 C 0.414062 -4.019531 0.367188 -4.03125 0.328125 -4.03125 L 0.25 -4.03125 L 0.25 -4.09375 L 2.078125 -4.09375 C 3.109375 -4.09375 3.625 -3.753906 3.625 -3.078125 Z M 2.828125 -1.234375 C 2.828125 -1.441406 2.785156 -1.613281 2.703125 -1.75 C 2.546875 -2.03125 2.269531 -2.171875 1.875 -2.171875 C 1.875 -2.171875 1.867188 -2.171875 1.859375 -2.171875 L 1.859375 -2.21875 C 2.078125 -2.21875 2.253906 -2.28125 2.390625 -2.40625 C 2.523438 -2.539062 2.59375 -2.742188 2.59375 -3.015625 C 2.59375 -3.554688 2.347656 -3.828125 1.859375 -3.828125 L 1.671875 -3.828125 L 1.671875 -0.265625 L 1.9375 -0.265625 C 2.195312 -0.265625 2.410156 -0.34375 2.578125 -0.5 C 2.742188 -0.65625 2.828125 -0.898438 2.828125 -1.234375 Z M 2.828125 -1.234375 "/></g></g><g style="fill:#c37f49;fill-opacity:1;"><g transform="translate(131.693179, 58.04563)"><path style="stroke:none" d="M 1.9375 -3.8125 L 1.71875 -3.8125 L 1.71875 -0.4375 C 1.71875 -0.320312 1.753906 -0.226562 1.828125 -0.15625 C 1.898438 -0.09375 1.984375 -0.0625 2.078125 -0.0625 L 2.15625 -0.0625 L 2.15625 0 L 0.28125 0 L 0.28125 -0.0625 L 0.359375 -0.0625 C 0.460938 -0.0625 0.546875 -0.09375 0.609375 -0.15625 C 0.679688 -0.226562 0.71875 -0.316406 0.71875 -0.421875 L 0.71875 -3.671875 C 0.71875 -3.773438 0.679688 -3.859375 0.609375 -3.921875 C 0.546875 -3.992188 0.46875 -4.03125 0.375 -4.03125 L 0.28125 -4.03125 L 0.28125 -4.09375 L 2.375 -4.09375 C 2.78125 -4.09375 3.125 -4.015625 3.40625 -3.859375 C 3.71875 -3.679688 3.875 -3.390625 3.875 -2.984375 C 3.875 -2.710938 3.789062 -2.472656 3.625 -2.265625 C 3.46875 -2.054688 3.234375 -1.925781 2.921875 -1.875 C 3.046875 -1.832031 3.164062 -1.753906 3.28125 -1.640625 C 3.40625 -1.523438 3.503906 -1.410156 3.578125 -1.296875 C 3.722656 -1.035156 3.875 -0.796875 4.03125 -0.578125 C 4.195312 -0.367188 4.328125 -0.226562 4.421875 -0.15625 C 4.515625 -0.09375 4.632812 -0.0625 4.78125 -0.0625 L 4.78125 0 L 4.203125 0 C 3.828125 0 3.535156 -0.0390625 3.328125 -0.125 C 3.128906 -0.21875 2.953125 -0.394531 2.796875 -0.65625 C 2.546875 -1.050781 2.390625 -1.359375 2.328125 -1.578125 C 2.273438 -1.710938 2.210938 -1.816406 2.140625 -1.890625 C 2.066406 -1.960938 1.992188 -2 1.921875 -2 L 1.921875 -2.0625 L 2.09375 -2.0625 C 2.476562 -2.0625 2.71875 -2.289062 2.8125 -2.75 C 2.820312 -2.8125 2.828125 -2.867188 2.828125 -2.921875 C 2.828125 -2.972656 2.820312 -3.039062 2.8125 -3.125 C 2.8125 -3.21875 2.785156 -3.316406 2.734375 -3.421875 C 2.679688 -3.535156 2.617188 -3.617188 2.546875 -3.671875 C 2.398438 -3.753906 2.253906 -3.800781 2.109375 -3.8125 C 2.054688 -3.8125 2 -3.8125 1.9375 -3.8125 Z M 1.9375 -3.8125 "/></g></g><g style="fill:#c37f49;fill-opacity:1;"><g transform="translate(136.183028, 58.04563)"><path style="stroke:none" d="M 4.546875 -0.0625 L 4.59375 -0.0625 L 4.59375 0 L 2.59375 0 L 2.59375 -0.0625 L 2.640625 -0.0625 C 2.734375 -0.0625 2.800781 -0.0859375 2.84375 -0.140625 C 2.882812 -0.203125 2.90625 -0.253906 2.90625 -0.296875 C 2.90625 -0.347656 2.894531 -0.394531 2.875 -0.4375 L 2.609375 -1.078125 L 1.15625 -1.078125 L 0.890625 -0.4375 C 0.867188 -0.394531 0.859375 -0.347656 0.859375 -0.296875 C 0.859375 -0.242188 0.878906 -0.191406 0.921875 -0.140625 C 0.960938 -0.0859375 1.03125 -0.0625 1.125 -0.0625 L 1.1875 -0.0625 L 1.1875 0 L -0.1875 0 L -0.1875 -0.0625 L -0.125 -0.0625 C -0.03125 -0.0625 0.0625 -0.09375 0.15625 -0.15625 C 0.25 -0.21875 0.328125 -0.304688 0.390625 -0.421875 L 1.796875 -3.453125 C 2.003906 -3.898438 2.109375 -4.175781 2.109375 -4.28125 L 2.171875 -4.28125 L 4.015625 -0.453125 C 4.066406 -0.316406 4.140625 -0.21875 4.234375 -0.15625 C 4.335938 -0.09375 4.441406 -0.0625 4.546875 -0.0625 Z M 1.28125 -1.34375 L 2.5 -1.34375 L 1.890625 -2.765625 Z M 1.28125 -1.34375 "/></g></g><g style="fill:#c37f49;fill-opacity:1;"><g transform="translate(140.584059, 58.04563)"><path style="stroke:none" d="M 0.3125 -0.5625 C 0.3125 -0.851562 0.378906 -1.101562 0.515625 -1.3125 L 0.5625 -1.3125 C 0.5625 -1.28125 0.5625 -1.253906 0.5625 -1.234375 C 0.5625 -0.953125 0.660156 -0.707031 0.859375 -0.5 C 1.054688 -0.289062 1.332031 -0.1875 1.6875 -0.1875 C 1.9375 -0.1875 2.128906 -0.242188 2.265625 -0.359375 C 2.410156 -0.484375 2.484375 -0.613281 2.484375 -0.75 C 2.484375 -0.894531 2.441406 -1.015625 2.359375 -1.109375 C 2.285156 -1.203125 2.15625 -1.304688 1.96875 -1.421875 L 1 -2.03125 C 0.59375 -2.289062 0.390625 -2.617188 0.390625 -3.015625 C 0.390625 -3.054688 0.390625 -3.097656 0.390625 -3.140625 C 0.421875 -3.460938 0.546875 -3.71875 0.765625 -3.90625 C 0.992188 -4.09375 1.257812 -4.1875 1.5625 -4.1875 C 1.863281 -4.1875 2.179688 -4.164062 2.515625 -4.125 L 2.890625 -4.125 L 2.796875 -3.21875 L 2.734375 -3.21875 C 2.734375 -3.4375 2.65625 -3.601562 2.5 -3.71875 C 2.351562 -3.84375 2.160156 -3.90625 1.921875 -3.90625 C 1.679688 -3.90625 1.488281 -3.851562 1.34375 -3.75 C 1.207031 -3.65625 1.140625 -3.523438 1.140625 -3.359375 C 1.140625 -3.210938 1.207031 -3.09375 1.34375 -3 C 1.394531 -2.957031 1.472656 -2.90625 1.578125 -2.84375 L 2.65625 -2.171875 C 3.03125 -1.941406 3.21875 -1.628906 3.21875 -1.234375 C 3.21875 -0.804688 3.066406 -0.476562 2.765625 -0.25 C 2.472656 -0.0195312 2.09375 0.09375 1.625 0.09375 C 1.332031 0.09375 1.070312 0.0625 0.84375 0 C 0.625 -0.0703125 0.460938 -0.160156 0.359375 -0.265625 C 0.328125 -0.347656 0.3125 -0.445312 0.3125 -0.5625 Z M 0.3125 -0.5625 "/></g></g><g style="fill:#c37f49;fill-opacity:1;"><g transform="translate(144.096668, 58.04563)"><path style="stroke:none" d="M 0.234375 -0.0625 L 0.3125 -0.0625 C 0.425781 -0.0625 0.519531 -0.0976562 0.59375 -0.171875 C 0.664062 -0.242188 0.703125 -0.332031 0.703125 -0.4375 L 0.703125 -3.671875 C 0.703125 -3.765625 0.664062 -3.847656 0.59375 -3.921875 C 0.519531 -3.992188 0.425781 -4.03125 0.3125 -4.03125 L 0.234375 -4.03125 L 0.234375 -4.09375 L 2.171875 -4.09375 L 2.171875 -4.03125 L 2.09375 -4.03125 C 1.988281 -4.03125 1.894531 -3.992188 1.8125 -3.921875 C 1.738281 -3.859375 1.695312 -3.773438 1.6875 -3.671875 L 1.6875 -0.4375 C 1.695312 -0.320312 1.738281 -0.226562 1.8125 -0.15625 C 1.894531 -0.09375 1.988281 -0.0625 2.09375 -0.0625 L 2.171875 -0.0625 L 2.171875 0 L 0.234375 0 Z M 0.234375 -0.0625 "/></g></g><g style="fill:#c37f49;fill-opacity:1;"><g transform="translate(146.502189, 58.04563)"><path style="stroke:none" d="M 0.234375 0 L 0.234375 -0.0625 L 0.3125 -0.0625 C 0.414062 -0.0625 0.503906 -0.09375 0.578125 -0.15625 C 0.648438 -0.226562 0.6875 -0.316406 0.6875 -0.421875 L 0.6875 -3.671875 C 0.6875 -3.765625 0.648438 -3.847656 0.578125 -3.921875 C 0.503906 -3.992188 0.414062 -4.03125 0.3125 -4.03125 L 0.234375 -4.03125 L 0.234375 -4.09375 L 2.125 -4.09375 L 2.125 -4.03125 L 2.046875 -4.03125 C 1.941406 -4.03125 1.851562 -3.992188 1.78125 -3.921875 C 1.707031 -3.859375 1.671875 -3.773438 1.671875 -3.671875 L 1.671875 -0.265625 L 2.5 -0.265625 C 2.78125 -0.273438 3.015625 -0.363281 3.203125 -0.53125 C 3.398438 -0.707031 3.546875 -0.945312 3.640625 -1.25 L 3.71875 -1.25 L 3.453125 0 Z M 0.234375 0 "/></g></g><g style="fill:#c37f49;fill-opacity:1;"><g transform="translate(150.247161, 58.04563)"><path style="stroke:none" d="M 3.453125 0 L 0.234375 0 L 0.234375 -0.0625 L 0.3125 -0.0625 C 0.414062 -0.0625 0.503906 -0.09375 0.578125 -0.15625 C 0.648438 -0.226562 0.6875 -0.316406 0.6875 -0.421875 L 0.6875 -3.671875 C 0.6875 -3.773438 0.648438 -3.859375 0.578125 -3.921875 C 0.503906 -3.992188 0.414062 -4.03125 0.3125 -4.03125 L 0.234375 -4.03125 L 0.234375 -4.09375 L 2.640625 -4.09375 C 2.753906 -4.09375 2.882812 -4.101562 3.03125 -4.125 C 3.175781 -4.15625 3.28125 -4.179688 3.34375 -4.203125 L 3.34375 -3.109375 L 3.28125 -3.109375 L 3.28125 -3.171875 C 3.28125 -3.367188 3.222656 -3.523438 3.109375 -3.640625 C 3.003906 -3.753906 2.851562 -3.816406 2.65625 -3.828125 L 1.671875 -3.828125 L 1.671875 -2.171875 L 2.453125 -2.171875 C 2.609375 -2.171875 2.734375 -2.21875 2.828125 -2.3125 C 2.921875 -2.414062 2.96875 -2.546875 2.96875 -2.703125 L 2.96875 -2.75 L 3.03125 -2.75 L 3.03125 -1.296875 L 2.96875 -1.296875 L 2.96875 -1.359375 C 2.96875 -1.566406 2.890625 -1.71875 2.734375 -1.8125 C 2.648438 -1.863281 2.554688 -1.890625 2.453125 -1.890625 L 1.671875 -1.890625 L 1.671875 -0.265625 L 2.5 -0.265625 C 2.78125 -0.273438 3.019531 -0.363281 3.21875 -0.53125 C 3.414062 -0.707031 3.554688 -0.945312 3.640625 -1.25 L 3.703125 -1.25 Z M 3.453125 0 "/></g></g><g style="fill:#c37f49;fill-opacity:1;"><g transform="translate(154.094637, 58.04563)"><path style="stroke:none" d="M 0.234375 -0.0625 L 0.3125 -0.0625 C 0.425781 -0.0625 0.519531 -0.0976562 0.59375 -0.171875 C 0.664062 -0.242188 0.703125 -0.332031 0.703125 -0.4375 L 0.703125 -3.671875 C 0.703125 -3.765625 0.664062 -3.847656 0.59375 -3.921875 C 0.519531 -3.992188 0.425781 -4.03125 0.3125 -4.03125 L 0.234375 -4.03125 L 0.234375 -4.09375 L 2.171875 -4.09375 L 2.171875 -4.03125 L 2.09375 -4.03125 C 1.988281 -4.03125 1.894531 -3.992188 1.8125 -3.921875 C 1.738281 -3.859375 1.695312 -3.773438 1.6875 -3.671875 L 1.6875 -0.4375 C 1.695312 -0.320312 1.738281 -0.226562 1.8125 -0.15625 C 1.894531 -0.09375 1.988281 -0.0625 2.09375 -0.0625 L 2.171875 -0.0625 L 2.171875 0 L 0.234375 0 Z M 0.234375 -0.0625 "/></g></g><g style="fill:#c37f49;fill-opacity:1;"><g transform="translate(156.500157, 58.04563)"><path style="stroke:none" d="M 1.9375 -3.8125 L 1.71875 -3.8125 L 1.71875 -0.4375 C 1.71875 -0.320312 1.753906 -0.226562 1.828125 -0.15625 C 1.898438 -0.09375 1.984375 -0.0625 2.078125 -0.0625 L 2.15625 -0.0625 L 2.15625 0 L 0.28125 0 L 0.28125 -0.0625 L 0.359375 -0.0625 C 0.460938 -0.0625 0.546875 -0.09375 0.609375 -0.15625 C 0.679688 -0.226562 0.71875 -0.316406 0.71875 -0.421875 L 0.71875 -3.671875 C 0.71875 -3.773438 0.679688 -3.859375 0.609375 -3.921875 C 0.546875 -3.992188 0.46875 -4.03125 0.375 -4.03125 L 0.28125 -4.03125 L 0.28125 -4.09375 L 2.375 -4.09375 C 2.78125 -4.09375 3.125 -4.015625 3.40625 -3.859375 C 3.71875 -3.679688 3.875 -3.390625 3.875 -2.984375 C 3.875 -2.710938 3.789062 -2.472656 3.625 -2.265625 C 3.46875 -2.054688 3.234375 -1.925781 2.921875 -1.875 C 3.046875 -1.832031 3.164062 -1.753906 3.28125 -1.640625 C 3.40625 -1.523438 3.503906 -1.410156 3.578125 -1.296875 C 3.722656 -1.035156 3.875 -0.796875 4.03125 -0.578125 C 4.195312 -0.367188 4.328125 -0.226562 4.421875 -0.15625 C 4.515625 -0.09375 4.632812 -0.0625 4.78125 -0.0625 L 4.78125 0 L 4.203125 0 C 3.828125 0 3.535156 -0.0390625 3.328125 -0.125 C 3.128906 -0.21875 2.953125 -0.394531 2.796875 -0.65625 C 2.546875 -1.050781 2.390625 -1.359375 2.328125 -1.578125 C 2.273438 -1.710938 2.210938 -1.816406 2.140625 -1.890625 C 2.066406 -1.960938 1.992188 -2 1.921875 -2 L 1.921875 -2.0625 L 2.09375 -2.0625 C 2.476562 -2.0625 2.71875 -2.289062 2.8125 -2.75 C 2.820312 -2.8125 2.828125 -2.867188 2.828125 -2.921875 C 2.828125 -2.972656 2.820312 -3.039062 2.8125 -3.125 C 2.8125 -3.21875 2.785156 -3.316406 2.734375 -3.421875 C 2.679688 -3.535156 2.617188 -3.617188 2.546875 -3.671875 C 2.398438 -3.753906 2.253906 -3.800781 2.109375 -3.8125 C 2.054688 -3.8125 2 -3.8125 1.9375 -3.8125 Z M 1.9375 -3.8125 "/></g></g><g style="fill:#c37f49;fill-opacity:1;"><g transform="translate(160.990029, 58.04563)"><path style="stroke:none" d="M 0.234375 -2.046875 C 0.234375 -2.703125 0.453125 -3.222656 0.890625 -3.609375 C 1.335938 -3.992188 1.925781 -4.1875 2.65625 -4.1875 C 3.382812 -4.1875 3.96875 -3.992188 4.40625 -3.609375 C 4.851562 -3.222656 5.078125 -2.703125 5.078125 -2.046875 C 5.078125 -1.390625 4.851562 -0.867188 4.40625 -0.484375 C 3.96875 -0.0976562 3.382812 0.09375 2.65625 0.09375 C 1.925781 0.09375 1.335938 -0.0976562 0.890625 -0.484375 C 0.453125 -0.867188 0.234375 -1.390625 0.234375 -2.046875 Z M 1.28125 -2.046875 C 1.28125 -1.472656 1.40625 -1.019531 1.65625 -0.6875 C 1.90625 -0.351562 2.238281 -0.1875 2.65625 -0.1875 C 3.070312 -0.1875 3.398438 -0.351562 3.640625 -0.6875 C 3.890625 -1.019531 4.015625 -1.472656 4.015625 -2.046875 C 4.015625 -2.617188 3.890625 -3.070312 3.640625 -3.40625 C 3.398438 -3.738281 3.070312 -3.90625 2.65625 -3.90625 C 2.238281 -3.90625 1.90625 -3.738281 1.65625 -3.40625 C 1.40625 -3.070312 1.28125 -2.617188 1.28125 -2.046875 Z M 1.28125 -2.046875 "/></g></g><g style="fill:#c37f49;fill-opacity:1;"><g transform="translate(166.299945, 58.04563)"><path style="stroke:none" d="M 0.3125 -0.5625 C 0.3125 -0.851562 0.378906 -1.101562 0.515625 -1.3125 L 0.5625 -1.3125 C 0.5625 -1.28125 0.5625 -1.253906 0.5625 -1.234375 C 0.5625 -0.953125 0.660156 -0.707031 0.859375 -0.5 C 1.054688 -0.289062 1.332031 -0.1875 1.6875 -0.1875 C 1.9375 -0.1875 2.128906 -0.242188 2.265625 -0.359375 C 2.410156 -0.484375 2.484375 -0.613281 2.484375 -0.75 C 2.484375 -0.894531 2.441406 -1.015625 2.359375 -1.109375 C 2.285156 -1.203125 2.15625 -1.304688 1.96875 -1.421875 L 1 -2.03125 C 0.59375 -2.289062 0.390625 -2.617188 0.390625 -3.015625 C 0.390625 -3.054688 0.390625 -3.097656 0.390625 -3.140625 C 0.421875 -3.460938 0.546875 -3.71875 0.765625 -3.90625 C 0.992188 -4.09375 1.257812 -4.1875 1.5625 -4.1875 C 1.863281 -4.1875 2.179688 -4.164062 2.515625 -4.125 L 2.890625 -4.125 L 2.796875 -3.21875 L 2.734375 -3.21875 C 2.734375 -3.4375 2.65625 -3.601562 2.5 -3.71875 C 2.351562 -3.84375 2.160156 -3.90625 1.921875 -3.90625 C 1.679688 -3.90625 1.488281 -3.851562 1.34375 -3.75 C 1.207031 -3.65625 1.140625 -3.523438 1.140625 -3.359375 C 1.140625 -3.210938 1.207031 -3.09375 1.34375 -3 C 1.394531 -2.957031 1.472656 -2.90625 1.578125 -2.84375 L 2.65625 -2.171875 C 3.03125 -1.941406 3.21875 -1.628906 3.21875 -1.234375 C 3.21875 -0.804688 3.066406 -0.476562 2.765625 -0.25 C 2.472656 -0.0195312 2.09375 0.09375 1.625 0.09375 C 1.332031 0.09375 1.070312 0.0625 0.84375 0 C 0.625 -0.0703125 0.460938 -0.160156 0.359375 -0.265625 C 0.328125 -0.347656 0.3125 -0.445312 0.3125 -0.5625 Z M 0.3125 -0.5625 "/></g></g><g style="fill:#c37f49;fill-opacity:1;"><g transform="translate(169.812566, 58.04563)"><path style="stroke:none" d=""/></g></g><g style="fill:#c37f49;fill-opacity:1;"><g transform="translate(171.521043, 58.04563)"><path style="stroke:none" d="M 3.28125 -3.109375 L 3.28125 -3.171875 C 3.28125 -3.367188 3.222656 -3.523438 3.109375 -3.640625 C 3.003906 -3.753906 2.851562 -3.816406 2.65625 -3.828125 L 1.671875 -3.828125 L 1.671875 -2.171875 L 2.453125 -2.171875 C 2.671875 -2.171875 2.828125 -2.257812 2.921875 -2.4375 C 2.960938 -2.507812 2.984375 -2.597656 2.984375 -2.703125 L 2.984375 -2.75 L 3.046875 -2.75 L 3.046875 -1.296875 L 2.984375 -1.296875 L 2.984375 -1.359375 C 2.984375 -1.566406 2.898438 -1.71875 2.734375 -1.8125 C 2.660156 -1.863281 2.570312 -1.890625 2.46875 -1.890625 L 1.671875 -1.890625 L 1.671875 -0.4375 C 1.679688 -0.320312 1.71875 -0.226562 1.78125 -0.15625 C 1.851562 -0.09375 1.941406 -0.0625 2.046875 -0.0625 L 2.125 -0.0625 L 2.125 0 L 0.234375 0 L 0.234375 -0.0625 L 0.3125 -0.0625 C 0.414062 -0.0625 0.503906 -0.09375 0.578125 -0.15625 C 0.648438 -0.226562 0.6875 -0.316406 0.6875 -0.421875 L 0.6875 -3.671875 C 0.6875 -3.773438 0.648438 -3.859375 0.578125 -3.921875 C 0.503906 -3.992188 0.414062 -4.03125 0.3125 -4.03125 L 0.234375 -4.03125 L 0.234375 -4.09375 L 2.640625 -4.09375 C 2.941406 -4.09375 3.179688 -4.128906 3.359375 -4.203125 L 3.359375 -3.109375 Z M 3.28125 -3.109375 "/></g></g><g style="fill:#c37f49;fill-opacity:1;"><g transform="translate(175.170327, 58.04563)"><path style="stroke:none" d="M 0.234375 -2.046875 C 0.234375 -2.703125 0.453125 -3.222656 0.890625 -3.609375 C 1.335938 -3.992188 1.925781 -4.1875 2.65625 -4.1875 C 3.382812 -4.1875 3.96875 -3.992188 4.40625 -3.609375 C 4.851562 -3.222656 5.078125 -2.703125 5.078125 -2.046875 C 5.078125 -1.390625 4.851562 -0.867188 4.40625 -0.484375 C 3.96875 -0.0976562 3.382812 0.09375 2.65625 0.09375 C 1.925781 0.09375 1.335938 -0.0976562 0.890625 -0.484375 C 0.453125 -0.867188 0.234375 -1.390625 0.234375 -2.046875 Z M 1.28125 -2.046875 C 1.28125 -1.472656 1.40625 -1.019531 1.65625 -0.6875 C 1.90625 -0.351562 2.238281 -0.1875 2.65625 -0.1875 C 3.070312 -0.1875 3.398438 -0.351562 3.640625 -0.6875 C 3.890625 -1.019531 4.015625 -1.472656 4.015625 -2.046875 C 4.015625 -2.617188 3.890625 -3.070312 3.640625 -3.40625 C 3.398438 -3.738281 3.070312 -3.90625 2.65625 -3.90625 C 2.238281 -3.90625 1.90625 -3.738281 1.65625 -3.40625 C 1.40625 -3.070312 1.28125 -2.617188 1.28125 -2.046875 Z M 1.28125 -2.046875 "/></g></g><g style="fill:#c37f49;fill-opacity:1;"><g transform="translate(180.480265, 58.04563)"><path style="stroke:none" d="M 1.9375 -3.8125 L 1.71875 -3.8125 L 1.71875 -0.4375 C 1.71875 -0.320312 1.753906 -0.226562 1.828125 -0.15625 C 1.898438 -0.09375 1.984375 -0.0625 2.078125 -0.0625 L 2.15625 -0.0625 L 2.15625 0 L 0.28125 0 L 0.28125 -0.0625 L 0.359375 -0.0625 C 0.460938 -0.0625 0.546875 -0.09375 0.609375 -0.15625 C 0.679688 -0.226562 0.71875 -0.316406 0.71875 -0.421875 L 0.71875 -3.671875 C 0.71875 -3.773438 0.679688 -3.859375 0.609375 -3.921875 C 0.546875 -3.992188 0.46875 -4.03125 0.375 -4.03125 L 0.28125 -4.03125 L 0.28125 -4.09375 L 2.375 -4.09375 C 2.78125 -4.09375 3.125 -4.015625 3.40625 -3.859375 C 3.71875 -3.679688 3.875 -3.390625 3.875 -2.984375 C 3.875 -2.710938 3.789062 -2.472656 3.625 -2.265625 C 3.46875 -2.054688 3.234375 -1.925781 2.921875 -1.875 C 3.046875 -1.832031 3.164062 -1.753906 3.28125 -1.640625 C 3.40625 -1.523438 3.503906 -1.410156 3.578125 -1.296875 C 3.722656 -1.035156 3.875 -0.796875 4.03125 -0.578125 C 4.195312 -0.367188 4.328125 -0.226562 4.421875 -0.15625 C 4.515625 -0.09375 4.632812 -0.0625 4.78125 -0.0625 L 4.78125 0 L 4.203125 0 C 3.828125 0 3.535156 -0.0390625 3.328125 -0.125 C 3.128906 -0.21875 2.953125 -0.394531 2.796875 -0.65625 C 2.546875 -1.050781 2.390625 -1.359375 2.328125 -1.578125 C 2.273438 -1.710938 2.210938 -1.816406 2.140625 -1.890625 C 2.066406 -1.960938 1.992188 -2 1.921875 -2 L 1.921875 -2.0625 L 2.09375 -2.0625 C 2.476562 -2.0625 2.71875 -2.289062 2.8125 -2.75 C 2.820312 -2.8125 2.828125 -2.867188 2.828125 -2.921875 C 2.828125 -2.972656 2.820312 -3.039062 2.8125 -3.125 C 2.8125 -3.21875 2.785156 -3.316406 2.734375 -3.421875 C 2.679688 -3.535156 2.617188 -3.617188 2.546875 -3.671875 C 2.398438 -3.753906 2.253906 -3.800781 2.109375 -3.8125 C 2.054688 -3.8125 2 -3.8125 1.9375 -3.8125 Z M 1.9375 -3.8125 "/></g></g><g style="fill:#c37f49;fill-opacity:1;"><g transform="translate(184.970114, 58.04563)"><path style="stroke:none" d="M 4.546875 -0.0625 L 4.59375 -0.0625 L 4.59375 0 L 2.59375 0 L 2.59375 -0.0625 L 2.640625 -0.0625 C 2.734375 -0.0625 2.800781 -0.0859375 2.84375 -0.140625 C 2.882812 -0.203125 2.90625 -0.253906 2.90625 -0.296875 C 2.90625 -0.347656 2.894531 -0.394531 2.875 -0.4375 L 2.609375 -1.078125 L 1.15625 -1.078125 L 0.890625 -0.4375 C 0.867188 -0.394531 0.859375 -0.347656 0.859375 -0.296875 C 0.859375 -0.242188 0.878906 -0.191406 0.921875 -0.140625 C 0.960938 -0.0859375 1.03125 -0.0625 1.125 -0.0625 L 1.1875 -0.0625 L 1.1875 0 L -0.1875 0 L -0.1875 -0.0625 L -0.125 -0.0625 C -0.03125 -0.0625 0.0625 -0.09375 0.15625 -0.15625 C 0.25 -0.21875 0.328125 -0.304688 0.390625 -0.421875 L 1.796875 -3.453125 C 2.003906 -3.898438 2.109375 -4.175781 2.109375 -4.28125 L 2.171875 -4.28125 L 4.015625 -0.453125 C 4.066406 -0.316406 4.140625 -0.21875 4.234375 -0.15625 C 4.335938 -0.09375 4.441406 -0.0625 4.546875 -0.0625 Z M 1.28125 -1.34375 L 2.5 -1.34375 L 1.890625 -2.765625 Z M 1.28125 -1.34375 "/></g></g><g style="fill:#c37f49;fill-opacity:1;"><g transform="translate(189.371145, 58.04563)"><path style="stroke:none" d=""/></g></g><g style="fill:#c37f49;fill-opacity:1;"><g transform="translate(191.079611, 58.04563)"><path style="stroke:none" d="M 4.25 -3.546875 C 4.664062 -3.191406 4.875 -2.691406 4.875 -2.046875 C 4.875 -1.398438 4.664062 -0.894531 4.25 -0.53125 C 3.832031 -0.175781 3.257812 0 2.53125 0 L 0.21875 0 L 0.21875 -0.0625 L 0.3125 -0.0625 C 0.414062 -0.0625 0.503906 -0.0976562 0.578125 -0.171875 C 0.648438 -0.242188 0.691406 -0.332031 0.703125 -0.4375 L 0.703125 -3.671875 C 0.691406 -3.773438 0.648438 -3.859375 0.578125 -3.921875 C 0.503906 -3.992188 0.414062 -4.03125 0.3125 -4.03125 L 0.21875 -4.03125 L 0.21875 -4.09375 L 2.53125 -4.09375 C 3.257812 -4.09375 3.832031 -3.910156 4.25 -3.546875 Z M 2.453125 -0.265625 C 2.878906 -0.265625 3.21875 -0.421875 3.46875 -0.734375 C 3.71875 -1.054688 3.84375 -1.492188 3.84375 -2.046875 C 3.84375 -2.597656 3.71875 -3.03125 3.46875 -3.34375 C 3.21875 -3.664062 2.878906 -3.828125 2.453125 -3.828125 L 1.6875 -3.828125 L 1.6875 -0.265625 Z M 2.453125 -0.265625 "/></g></g><g style="fill:#c37f49;fill-opacity:1;"><g transform="translate(196.191358, 58.04563)"><path style="stroke:none" d="M 0.234375 -2.046875 C 0.234375 -2.703125 0.453125 -3.222656 0.890625 -3.609375 C 1.335938 -3.992188 1.925781 -4.1875 2.65625 -4.1875 C 3.382812 -4.1875 3.96875 -3.992188 4.40625 -3.609375 C 4.851562 -3.222656 5.078125 -2.703125 5.078125 -2.046875 C 5.078125 -1.390625 4.851562 -0.867188 4.40625 -0.484375 C 3.96875 -0.0976562 3.382812 0.09375 2.65625 0.09375 C 1.925781 0.09375 1.335938 -0.0976562 0.890625 -0.484375 C 0.453125 -0.867188 0.234375 -1.390625 0.234375 -2.046875 Z M 1.28125 -2.046875 C 1.28125 -1.472656 1.40625 -1.019531 1.65625 -0.6875 C 1.90625 -0.351562 2.238281 -0.1875 2.65625 -0.1875 C 3.070312 -0.1875 3.398438 -0.351562 3.640625 -0.6875 C 3.890625 -1.019531 4.015625 -1.472656 4.015625 -2.046875 C 4.015625 -2.617188 3.890625 -3.070312 3.640625 -3.40625 C 3.398438 -3.738281 3.070312 -3.90625 2.65625 -3.90625 C 2.238281 -3.90625 1.90625 -3.738281 1.65625 -3.40625 C 1.40625 -3.070312 1.28125 -2.617188 1.28125 -2.046875 Z M 1.28125 -2.046875 "/></g></g><g style="fill:#c37f49;fill-opacity:1;"><g transform="translate(201.501274, 58.04563)"><path style="stroke:none" d=""/></g></g><g style="fill:#c37f49;fill-opacity:1;"><g transform="translate(203.209752, 58.04563)"><path style="stroke:none" d="M 3.6875 -2.265625 C 3.457031 -1.867188 3.097656 -1.671875 2.609375 -1.671875 C 2.367188 -1.671875 2.128906 -1.75 1.890625 -1.90625 L 1.890625 -1.953125 C 2.347656 -1.953125 2.640625 -2.1875 2.765625 -2.65625 C 2.796875 -2.757812 2.8125 -2.84375 2.8125 -2.90625 C 2.8125 -3.21875 2.734375 -3.445312 2.578125 -3.59375 C 2.429688 -3.75 2.234375 -3.828125 1.984375 -3.828125 L 1.671875 -3.828125 L 1.671875 -0.4375 C 1.679688 -0.289062 1.742188 -0.179688 1.859375 -0.109375 C 1.910156 -0.078125 1.972656 -0.0625 2.046875 -0.0625 L 2.125 -0.0625 L 2.125 0 L 0.234375 0 L 0.234375 -0.0625 L 0.328125 -0.0625 C 0.421875 -0.0625 0.503906 -0.09375 0.578125 -0.15625 C 0.648438 -0.226562 0.6875 -0.316406 0.6875 -0.421875 L 0.6875 -3.671875 C 0.6875 -3.773438 0.648438 -3.859375 0.578125 -3.921875 C 0.503906 -3.992188 0.414062 -4.03125 0.3125 -4.03125 L 0.234375 -4.03125 L 0.234375 -4.09375 L 2.25 -4.09375 C 2.769531 -4.09375 3.160156 -3.988281 3.421875 -3.78125 C 3.703125 -3.570312 3.84375 -3.28125 3.84375 -2.90625 C 3.84375 -2.664062 3.789062 -2.453125 3.6875 -2.265625 Z M 3.6875 -2.265625 "/></g></g><g style="fill:#c37f49;fill-opacity:1;"><g transform="translate(207.207574, 58.04563)"><path style="stroke:none" d="M 4.546875 -0.0625 L 4.59375 -0.0625 L 4.59375 0 L 2.59375 0 L 2.59375 -0.0625 L 2.640625 -0.0625 C 2.734375 -0.0625 2.800781 -0.0859375 2.84375 -0.140625 C 2.882812 -0.203125 2.90625 -0.253906 2.90625 -0.296875 C 2.90625 -0.347656 2.894531 -0.394531 2.875 -0.4375 L 2.609375 -1.078125 L 1.15625 -1.078125 L 0.890625 -0.4375 C 0.867188 -0.394531 0.859375 -0.347656 0.859375 -0.296875 C 0.859375 -0.242188 0.878906 -0.191406 0.921875 -0.140625 C 0.960938 -0.0859375 1.03125 -0.0625 1.125 -0.0625 L 1.1875 -0.0625 L 1.1875 0 L -0.1875 0 L -0.1875 -0.0625 L -0.125 -0.0625 C -0.03125 -0.0625 0.0625 -0.09375 0.15625 -0.15625 C 0.25 -0.21875 0.328125 -0.304688 0.390625 -0.421875 L 1.796875 -3.453125 C 2.003906 -3.898438 2.109375 -4.175781 2.109375 -4.28125 L 2.171875 -4.28125 L 4.015625 -0.453125 C 4.066406 -0.316406 4.140625 -0.21875 4.234375 -0.15625 C 4.335938 -0.09375 4.441406 -0.0625 4.546875 -0.0625 Z M 1.28125 -1.34375 L 2.5 -1.34375 L 1.890625 -2.765625 Z M 1.28125 -1.34375 "/></g></g><g style="fill:#c37f49;fill-opacity:1;"><g transform="translate(211.608582, 58.04563)"><path style="stroke:none" d="M 1.078125 -4.515625 L 1.03125 -4.5625 C 1.226562 -4.90625 1.554688 -5.28125 2.015625 -5.6875 C 2.234375 -5.582031 2.390625 -5.398438 2.484375 -5.140625 C 2.015625 -4.835938 1.546875 -4.628906 1.078125 -4.515625 Z M 2.09375 0 L 0.234375 0 L 0.234375 -0.0625 L 0.3125 -0.0625 C 0.40625 -0.0625 0.488281 -0.0976562 0.5625 -0.171875 C 0.632812 -0.242188 0.671875 -0.332031 0.671875 -0.4375 L 0.671875 -3.671875 C 0.671875 -3.765625 0.632812 -3.847656 0.5625 -3.921875 C 0.488281 -3.992188 0.40625 -4.03125 0.3125 -4.03125 L 0.234375 -4.03125 L 0.234375 -4.09375 L 2.09375 -4.09375 L 2.09375 -4.03125 L 2.015625 -4.03125 C 1.921875 -4.03125 1.835938 -3.992188 1.765625 -3.921875 C 1.691406 -3.859375 1.65625 -3.773438 1.65625 -3.671875 L 1.65625 -0.4375 C 1.65625 -0.320312 1.691406 -0.226562 1.765625 -0.15625 C 1.835938 -0.09375 1.921875 -0.0625 2.015625 -0.0625 L 2.09375 -0.0625 Z M 2.09375 0 "/></g></g><g style="fill:#c37f49;fill-opacity:1;"><g transform="translate(213.932121, 58.04563)"><path style="stroke:none" d="M 0.3125 -0.5625 C 0.3125 -0.851562 0.378906 -1.101562 0.515625 -1.3125 L 0.5625 -1.3125 C 0.5625 -1.28125 0.5625 -1.253906 0.5625 -1.234375 C 0.5625 -0.953125 0.660156 -0.707031 0.859375 -0.5 C 1.054688 -0.289062 1.332031 -0.1875 1.6875 -0.1875 C 1.9375 -0.1875 2.128906 -0.242188 2.265625 -0.359375 C 2.410156 -0.484375 2.484375 -0.613281 2.484375 -0.75 C 2.484375 -0.894531 2.441406 -1.015625 2.359375 -1.109375 C 2.285156 -1.203125 2.15625 -1.304688 1.96875 -1.421875 L 1 -2.03125 C 0.59375 -2.289062 0.390625 -2.617188 0.390625 -3.015625 C 0.390625 -3.054688 0.390625 -3.097656 0.390625 -3.140625 C 0.421875 -3.460938 0.546875 -3.71875 0.765625 -3.90625 C 0.992188 -4.09375 1.257812 -4.1875 1.5625 -4.1875 C 1.863281 -4.1875 2.179688 -4.164062 2.515625 -4.125 L 2.890625 -4.125 L 2.796875 -3.21875 L 2.734375 -3.21875 C 2.734375 -3.4375 2.65625 -3.601562 2.5 -3.71875 C 2.351562 -3.84375 2.160156 -3.90625 1.921875 -3.90625 C 1.679688 -3.90625 1.488281 -3.851562 1.34375 -3.75 C 1.207031 -3.65625 1.140625 -3.523438 1.140625 -3.359375 C 1.140625 -3.210938 1.207031 -3.09375 1.34375 -3 C 1.394531 -2.957031 1.472656 -2.90625 1.578125 -2.84375 L 2.65625 -2.171875 C 3.03125 -1.941406 3.21875 -1.628906 3.21875 -1.234375 C 3.21875 -0.804688 3.066406 -0.476562 2.765625 -0.25 C 2.472656 -0.0195312 2.09375 0.09375 1.625 0.09375 C 1.332031 0.09375 1.070312 0.0625 0.84375 0 C 0.625 -0.0703125 0.460938 -0.160156 0.359375 -0.265625 C 0.328125 -0.347656 0.3125 -0.445312 0.3125 -0.5625 Z M 0.3125 -0.5625 "/></g></g><g style="fill:#b58c53;fill-opacity:1;"><g transform="translate(43.737404, 30.828611)"><path style="stroke:none" d="M 14.484375 0 C 13.097656 0.414062 11.640625 0.625 10.109375 0.625 C 7.679688 0.625 5.9375 0.078125 4.875 -1.015625 C 3.8125 -2.109375 3.28125 -3.878906 3.28125 -6.328125 L 3.28125 -16.859375 L 0.625 -16.859375 L 0.625 -20.953125 L 3.28125 -20.953125 L 3.28125 -26.796875 L 8.4375 -26.796875 L 8.4375 -20.953125 L 13.3125 -20.953125 L 13.3125 -16.859375 L 8.4375 -16.859375 L 8.4375 -7 C 8.4375 -5.6875 8.640625 -4.796875 9.046875 -4.328125 C 9.453125 -3.867188 10.023438 -3.640625 10.765625 -3.640625 C 11.710938 -3.640625 12.65625 -3.832031 13.59375 -4.21875 Z M 14.484375 0 "/></g></g><g style="fill:#b58c53;fill-opacity:1;"><g transform="translate(58.500266, 30.828611)"><path style="stroke:none" d="M 7.15625 -9.125 C 7.25 -7.257812 7.703125 -5.921875 8.515625 -5.109375 C 9.328125 -4.296875 10.601562 -3.890625 12.34375 -3.890625 C 13.351562 -3.890625 14.242188 -4.015625 15.015625 -4.265625 C 15.785156 -4.523438 16.457031 -5.015625 17.03125 -5.734375 L 20.859375 -3 C 20.023438 -1.78125 18.9375 -0.867188 17.59375 -0.265625 C 16.25 0.328125 14.421875 0.625 12.109375 0.625 C 8.660156 0.625 6.085938 -0.28125 4.390625 -2.09375 C 2.691406 -3.90625 1.84375 -6.644531 1.84375 -10.3125 C 1.84375 -17.8125 5.195312 -21.5625 11.90625 -21.5625 C 14.894531 -21.5625 17.171875 -20.71875 18.734375 -19.03125 C 20.296875 -17.34375 21.078125 -14.890625 21.078125 -11.671875 L 21.078125 -9.125 Z M 15.96875 -12.6875 C 15.96875 -15.875 14.570312 -17.46875 11.78125 -17.46875 C 10.863281 -17.46875 10.113281 -17.3125 9.53125 -17 C 8.945312 -16.6875 8.476562 -16.21875 8.125 -15.59375 C 7.769531 -14.976562 7.492188 -14.007812 7.296875 -12.6875 Z M 15.96875 -12.6875 "/></g></g><g style="fill:#b58c53;fill-opacity:1;"><g transform="translate(81.33376, 30.828611)"><path style="stroke:none" d="M 15.546875 -15.921875 C 15.015625 -16.191406 14.304688 -16.328125 13.421875 -16.328125 C 12.460938 -16.328125 11.550781 -16.097656 10.6875 -15.640625 C 9.832031 -15.179688 8.953125 -14.507812 8.046875 -13.625 L 8.046875 0 L 2.890625 0 L 2.890625 -20.953125 L 8.046875 -20.953125 L 8.046875 -17.96875 C 8.929688 -18.925781 9.878906 -19.71875 10.890625 -20.34375 C 11.898438 -20.96875 13.03125 -21.28125 14.28125 -21.28125 C 15.351562 -21.28125 16.113281 -21.140625 16.5625 -20.859375 Z M 15.546875 -15.921875 "/></g></g><g style="fill:#b58c53;fill-opacity:1;"><g transform="translate(98.114281, 30.828611)"><path style="stroke:none" d="M 15.265625 0 L 15.265625 -2.171875 C 13.222656 -0.304688 11.039062 0.625 8.71875 0.625 C 6.394531 0.625 4.640625 0.015625 3.453125 -1.203125 C 2.265625 -2.421875 1.671875 -3.984375 1.671875 -5.890625 C 1.671875 -7.378906 1.972656 -8.609375 2.578125 -9.578125 C 3.191406 -10.554688 4.09375 -11.320312 5.28125 -11.875 C 6.476562 -12.425781 8.195312 -12.816406 10.4375 -13.046875 L 14.84375 -13.46875 L 14.84375 -14.40625 C 14.84375 -15.582031 14.488281 -16.382812 13.78125 -16.8125 C 13.082031 -17.25 12.050781 -17.46875 10.6875 -17.46875 C 9.570312 -17.46875 8.609375 -17.28125 7.796875 -16.90625 C 6.992188 -16.53125 6.398438 -16 6.015625 -15.3125 L 2 -17.890625 C 2.707031 -19.066406 3.8125 -19.972656 5.3125 -20.609375 C 6.820312 -21.242188 8.640625 -21.5625 10.765625 -21.5625 C 14.035156 -21.5625 16.390625 -20.988281 17.828125 -19.84375 C 19.273438 -18.707031 20 -16.84375 20 -14.25 L 20 0 Z M 14.84375 -9.734375 L 12.234375 -9.484375 C 10.378906 -9.328125 9.039062 -8.972656 8.21875 -8.421875 C 7.40625 -7.878906 7 -7.0625 7 -5.96875 C 7 -5.007812 7.265625 -4.351562 7.796875 -4 C 8.328125 -3.65625 9.03125 -3.484375 9.90625 -3.484375 C 10.53125 -3.484375 11.289062 -3.675781 12.1875 -4.0625 C 13.09375 -4.457031 13.976562 -5.015625 14.84375 -5.734375 Z M 14.84375 -9.734375 "/></g></g><g style="fill:#b58c53;fill-opacity:1;"><g transform="translate(120.867868, 30.828611)"><path style="stroke:none" d="M 22.453125 -10.625 C 22.453125 -8.375 22.113281 -6.390625 21.4375 -4.671875 C 20.757812 -2.953125 19.785156 -1.640625 18.515625 -0.734375 C 17.253906 0.171875 15.742188 0.625 13.984375 0.625 C 11.671875 0.625 9.691406 -0.101562 8.046875 -1.5625 L 8.046875 7.890625 L 2.890625 7.890625 L 2.890625 -20.953125 L 7.65625 -20.953125 L 7.65625 -18.90625 C 8.613281 -19.726562 9.617188 -20.375 10.671875 -20.84375 C 11.734375 -21.320312 12.953125 -21.5625 14.328125 -21.5625 C 16.972656 -21.5625 18.988281 -20.628906 20.375 -18.765625 C 21.757812 -16.898438 22.453125 -14.1875 22.453125 -10.625 Z M 17.140625 -10.546875 C 17.140625 -12.585938 16.785156 -14.175781 16.078125 -15.3125 C 15.378906 -16.457031 14.328125 -17.03125 12.921875 -17.03125 C 12.085938 -17.03125 11.226562 -16.832031 10.34375 -16.4375 C 9.457031 -16.039062 8.691406 -15.554688 8.046875 -14.984375 L 8.046875 -5.8125 C 8.597656 -5.320312 9.273438 -4.882812 10.078125 -4.5 C 10.890625 -4.125 11.71875 -3.9375 12.5625 -3.9375 C 13.976562 -3.9375 15.09375 -4.535156 15.90625 -5.734375 C 16.726562 -6.941406 17.140625 -8.546875 17.140625 -10.546875 Z M 17.140625 -10.546875 "/></g></g><g style="fill:#b58c53;fill-opacity:1;"><g transform="translate(145.179646, 30.828611)"><path style="stroke:none" d="M 8.359375 -26.671875 C 8.359375 -25.703125 8.113281 -25.023438 7.625 -24.640625 C 7.144531 -24.253906 6.414062 -24.0625 5.4375 -24.0625 C 4.34375 -24.0625 3.597656 -24.285156 3.203125 -24.734375 C 2.816406 -25.191406 2.625 -25.835938 2.625 -26.671875 C 2.625 -27.609375 2.832031 -28.28125 3.25 -28.6875 C 3.675781 -29.09375 4.40625 -29.296875 5.4375 -29.296875 C 6.476562 -29.296875 7.222656 -29.097656 7.671875 -28.703125 C 8.128906 -28.304688 8.359375 -27.628906 8.359375 -26.671875 Z M 2.890625 0 L 2.890625 -20.953125 L 8.046875 -20.953125 L 8.046875 0 Z M 2.890625 0 "/></g></g><g style="fill:#b58c53;fill-opacity:1;"><g transform="translate(156.146914, 30.828611)"><path style="stroke:none" d="M 15.265625 0 L 15.265625 -2.171875 C 13.222656 -0.304688 11.039062 0.625 8.71875 0.625 C 6.394531 0.625 4.640625 0.015625 3.453125 -1.203125 C 2.265625 -2.421875 1.671875 -3.984375 1.671875 -5.890625 C 1.671875 -7.378906 1.972656 -8.609375 2.578125 -9.578125 C 3.191406 -10.554688 4.09375 -11.320312 5.28125 -11.875 C 6.476562 -12.425781 8.195312 -12.816406 10.4375 -13.046875 L 14.84375 -13.46875 L 14.84375 -14.40625 C 14.84375 -15.582031 14.488281 -16.382812 13.78125 -16.8125 C 13.082031 -17.25 12.050781 -17.46875 10.6875 -17.46875 C 9.570312 -17.46875 8.609375 -17.28125 7.796875 -16.90625 C 6.992188 -16.53125 6.398438 -16 6.015625 -15.3125 L 2 -17.890625 C 2.707031 -19.066406 3.8125 -19.972656 5.3125 -20.609375 C 6.820312 -21.242188 8.640625 -21.5625 10.765625 -21.5625 C 14.035156 -21.5625 16.390625 -20.988281 17.828125 -19.84375 C 19.273438 -18.707031 20 -16.84375 20 -14.25 L 20 0 Z M 14.84375 -9.734375 L 12.234375 -9.484375 C 10.378906 -9.328125 9.039062 -8.972656 8.21875 -8.421875 C 7.40625 -7.878906 7 -7.0625 7 -5.96875 C 7 -5.007812 7.265625 -4.351562 7.796875 -4 C 8.328125 -3.65625 9.03125 -3.484375 9.90625 -3.484375 C 10.53125 -3.484375 11.289062 -3.675781 12.1875 -4.0625 C 13.09375 -4.457031 13.976562 -5.015625 14.84375 -5.734375 Z M 14.84375 -9.734375 "/></g></g><g style="fill:#d2ac67;fill-opacity:1;"><g transform="translate(42.627007, 50.542512)"><path style="stroke:none" d="M 10.296875 0.640625 C 9.609375 0.816406 8.921875 0.90625 8.234375 0.90625 C 6.765625 0.925781 5.472656 0.457031 4.359375 -0.5 C 3.492188 -1.207031 2.835938 -2.050781 2.390625 -3.03125 C 1.953125 -4.007812 1.671875 -5.050781 1.546875 -6.15625 C 1.429688 -7.269531 1.421875 -8.390625 1.515625 -9.515625 C 1.617188 -10.640625 1.785156 -11.71875 2.015625 -12.75 C 2.242188 -13.78125 2.476562 -14.703125 2.71875 -15.515625 C 2.96875 -16.328125 3.179688 -16.972656 3.359375 -17.453125 C 3.546875 -17.929688 3.640625 -18.171875 3.640625 -18.171875 C 4.410156 -20.078125 5.441406 -21.773438 6.734375 -23.265625 C 8.023438 -24.753906 9.515625 -26.003906 11.203125 -27.015625 C 12.890625 -28.023438 14.691406 -28.75 16.609375 -29.1875 C 18.535156 -29.625 20.515625 -29.738281 22.546875 -29.53125 C 22.847656 -29.507812 23.054688 -29.359375 23.171875 -29.078125 C 23.285156 -28.785156 23.253906 -28.519531 23.078125 -28.28125 C 22.890625 -28.050781 22.644531 -27.957031 22.34375 -28 C 20.488281 -28.1875 18.675781 -28.078125 16.90625 -27.671875 C 15.144531 -27.273438 13.5 -26.613281 11.96875 -25.6875 C 10.4375 -24.757812 9.078125 -23.609375 7.890625 -22.234375 C 6.703125 -20.859375 5.757812 -19.304688 5.0625 -17.578125 C 4.800781 -16.972656 4.515625 -16.15625 4.203125 -15.125 C 3.890625 -14.09375 3.617188 -12.953125 3.390625 -11.703125 C 3.171875 -10.460938 3.054688 -9.207031 3.046875 -7.9375 C 3.035156 -6.664062 3.203125 -5.476562 3.546875 -4.375 C 3.890625 -3.28125 4.492188 -2.378906 5.359375 -1.671875 C 5.984375 -1.140625 6.703125 -0.800781 7.515625 -0.65625 C 8.328125 -0.507812 9.113281 -0.578125 9.875 -0.859375 C 11.5625 -1.367188 13.101562 -2.148438 14.5 -3.203125 C 14.832031 -3.460938 15.019531 -3.785156 15.0625 -4.171875 C 15.09375 -4.585938 14.960938 -4.941406 14.671875 -5.234375 C 13.066406 -6.816406 11.878906 -8.660156 11.109375 -10.765625 C 10.585938 -12.328125 10.410156 -13.921875 10.578125 -15.546875 C 10.753906 -17.179688 11.257812 -18.703125 12.09375 -20.109375 C 12.894531 -21.640625 13.753906 -22.84375 14.671875 -23.71875 C 15.597656 -24.601562 16.53125 -25.234375 17.46875 -25.609375 C 18.40625 -25.984375 19.316406 -26.148438 20.203125 -26.109375 C 21.085938 -26.066406 21.898438 -25.875 22.640625 -25.53125 C 23.460938 -25.15625 24.203125 -24.609375 24.859375 -23.890625 C 25.515625 -23.171875 26.035156 -22.335938 26.421875 -21.390625 C 26.804688 -20.441406 27.003906 -19.398438 27.015625 -18.265625 C 27.035156 -17.140625 26.8125 -15.972656 26.34375 -14.765625 C 26.070312 -14.078125 25.609375 -13.210938 24.953125 -12.171875 C 24.296875 -11.128906 23.484375 -10.007812 22.515625 -8.8125 C 21.554688 -7.625 20.5 -6.460938 19.34375 -5.328125 C 19.050781 -5.015625 18.925781 -4.648438 18.96875 -4.234375 C 19.03125 -3.804688 19.234375 -3.472656 19.578125 -3.234375 C 20.929688 -2.347656 22.335938 -1.582031 23.796875 -0.9375 C 24.066406 -0.800781 24.222656 -0.585938 24.265625 -0.296875 C 24.296875 -0.00390625 24.1875 0.226562 23.9375 0.40625 C 23.695312 0.582031 23.441406 0.601562 23.171875 0.46875 C 21.285156 -0.375 19.5 -1.382812 17.8125 -2.5625 C 17.582031 -2.738281 17.316406 -2.828125 17.015625 -2.828125 C 16.722656 -2.828125 16.460938 -2.726562 16.234375 -2.53125 C 14.453125 -1.082031 12.472656 -0.0234375 10.296875 0.640625 Z M 20 -24.546875 C 18.957031 -24.546875 17.859375 -24.164062 16.703125 -23.40625 C 15.546875 -22.644531 14.457031 -21.3125 13.4375 -19.40625 C 12.707031 -18.175781 12.269531 -16.851562 12.125 -15.4375 C 11.976562 -14.03125 12.128906 -12.648438 12.578125 -11.296875 C 13.304688 -9.296875 14.445312 -7.566406 16 -6.109375 C 16.25 -5.859375 16.554688 -5.726562 16.921875 -5.71875 C 17.285156 -5.707031 17.601562 -5.832031 17.875 -6.09375 C 19.007812 -7.1875 20.0625 -8.316406 21.03125 -9.484375 C 22.007812 -10.648438 22.835938 -11.75 23.515625 -12.78125 C 24.191406 -13.8125 24.65625 -14.660156 24.90625 -15.328125 C 25.414062 -16.660156 25.585938 -17.914062 25.421875 -19.09375 C 25.253906 -20.28125 24.859375 -21.316406 24.234375 -22.203125 C 23.617188 -23.085938 22.875 -23.734375 22 -24.140625 C 21.375 -24.410156 20.707031 -24.546875 20 -24.546875 Z M 20 -24.546875 "/></g></g><g style="fill:#d2ac67;fill-opacity:1;"><g transform="translate(70.055518, 50.542512)"><path style="stroke:none" d="M 25.703125 -7.328125 C 25.859375 -7.179688 25.941406 -7 25.953125 -6.78125 C 25.960938 -6.570312 25.890625 -6.390625 25.734375 -6.234375 C 25.691406 -6.171875 25.472656 -5.945312 25.078125 -5.5625 C 24.691406 -5.1875 24.164062 -4.726562 23.5 -4.1875 C 22.832031 -3.644531 22.054688 -3.101562 21.171875 -2.5625 C 20.285156 -2.03125 19.332031 -1.578125 18.3125 -1.203125 C 17.300781 -0.828125 16.25 -0.609375 15.15625 -0.546875 C 14.070312 -0.492188 12.976562 -0.691406 11.875 -1.140625 C 10.351562 -1.910156 9.171875 -3.039062 8.328125 -4.53125 C 8.203125 -4.6875 8.03125 -4.929688 7.8125 -5.265625 C 7.601562 -5.597656 7.3125 -5.753906 6.9375 -5.734375 C 6.757812 -5.734375 6.5 -5.675781 6.15625 -5.5625 C 5.8125 -5.457031 5.367188 -5.242188 4.828125 -4.921875 C 4.296875 -4.597656 3.65625 -4.09375 2.90625 -3.40625 C 2.164062 -2.71875 1.296875 -1.796875 0.296875 -0.640625 C 0.0351562 -0.347656 -0.273438 -0.289062 -0.640625 -0.46875 C -0.992188 -0.644531 -1.125 -0.929688 -1.03125 -1.328125 L 0.4375 -7.796875 C 0.476562 -7.992188 0.59375 -8.148438 0.78125 -8.265625 C 0.96875 -8.378906 1.160156 -8.40625 1.359375 -8.34375 C 1.566406 -8.3125 1.722656 -8.203125 1.828125 -8.015625 C 1.941406 -7.828125 1.976562 -7.632812 1.9375 -7.4375 L 1.265625 -4.53125 C 1.242188 -4.425781 1.28125 -4.347656 1.375 -4.296875 C 1.476562 -4.253906 1.566406 -4.273438 1.640625 -4.359375 C 3.816406 -6.410156 5.648438 -7.390625 7.140625 -7.296875 C 7.773438 -7.253906 8.304688 -7 8.734375 -6.53125 C 9.066406 -6.175781 9.359375 -5.789062 9.609375 -5.375 C 10.273438 -4.164062 11.21875 -3.238281 12.4375 -2.59375 C 13.375 -2.195312 14.320312 -2.035156 15.28125 -2.109375 C 16.25 -2.191406 17.179688 -2.410156 18.078125 -2.765625 C 18.984375 -3.117188 19.828125 -3.546875 20.609375 -4.046875 C 21.398438 -4.546875 22.09375 -5.039062 22.6875 -5.53125 C 23.28125 -6.019531 23.742188 -6.429688 24.078125 -6.765625 C 24.410156 -7.097656 24.585938 -7.273438 24.609375 -7.296875 C 24.742188 -7.453125 24.921875 -7.53125 25.140625 -7.53125 C 25.359375 -7.53125 25.546875 -7.460938 25.703125 -7.328125 Z M 25.703125 -7.328125 "/></g></g><g style="fill:#d2ac67;fill-opacity:1;"><g transform="translate(94.544211, 50.542512)"><path style="stroke:none" d="M 20.234375 -7.5625 C 20.390625 -7.40625 20.46875 -7.21875 20.46875 -7 C 20.46875 -6.78125 20.390625 -6.59375 20.234375 -6.4375 C 20.171875 -6.382812 19.878906 -6.117188 19.359375 -5.640625 C 18.835938 -5.171875 18.15625 -4.613281 17.3125 -3.96875 C 16.476562 -3.320312 15.519531 -2.675781 14.4375 -2.03125 C 13.363281 -1.382812 12.234375 -0.84375 11.046875 -0.40625 C 9.859375 0.0195312 8.664062 0.234375 7.46875 0.234375 C 6.738281 0.234375 6.035156 0.132812 5.359375 -0.0625 C 4.078125 -0.4375 3.007812 -1.203125 2.15625 -2.359375 C 1.300781 -3.523438 0.679688 -5.03125 0.296875 -6.875 C 0.253906 -6.976562 0.234375 -7.078125 0.234375 -7.171875 C 0.0546875 -8.128906 -0.0625 -9.101562 -0.125 -10.09375 C -0.175781 -11.363281 -0.144531 -12.691406 -0.03125 -14.078125 C 0.0703125 -15.472656 0.25 -16.84375 0.5 -18.1875 C 0.75 -19.53125 1.078125 -20.773438 1.484375 -21.921875 C 1.890625 -23.066406 2.34375 -24.03125 2.84375 -24.8125 C 3.34375 -25.601562 3.894531 -26.132812 4.5 -26.40625 C 4.90625 -26.582031 5.332031 -26.609375 5.78125 -26.484375 C 6.238281 -26.367188 6.601562 -26.140625 6.875 -25.796875 C 7.3125 -25.335938 7.539062 -24.679688 7.5625 -23.828125 C 7.59375 -22.972656 7.488281 -22 7.25 -20.90625 C 7.019531 -19.8125 6.695312 -18.65625 6.28125 -17.4375 C 5.875 -16.21875 5.425781 -15.019531 4.9375 -13.84375 C 4.445312 -12.675781 3.96875 -11.582031 3.5 -10.5625 C 3.03125 -9.539062 2.628906 -8.6875 2.296875 -8 C 1.984375 -7.351562 1.925781 -6.695312 2.125 -6.03125 C 2.414062 -5.007812 2.847656 -4.082031 3.421875 -3.25 C 4.003906 -2.414062 4.796875 -1.84375 5.796875 -1.53125 C 6.710938 -1.257812 7.675781 -1.207031 8.6875 -1.375 C 9.695312 -1.550781 10.695312 -1.867188 11.6875 -2.328125 C 12.675781 -2.796875 13.613281 -3.316406 14.5 -3.890625 C 15.394531 -4.472656 16.1875 -5.035156 16.875 -5.578125 C 17.5625 -6.128906 18.101562 -6.59375 18.5 -6.96875 C 18.90625 -7.34375 19.117188 -7.539062 19.140625 -7.5625 C 19.296875 -7.695312 19.484375 -7.765625 19.703125 -7.765625 C 19.898438 -7.765625 20.078125 -7.695312 20.234375 -7.5625 Z M 1.53125 -10.53125 C 1.550781 -10.394531 1.617188 -10.300781 1.734375 -10.25 C 1.847656 -10.195312 1.945312 -10.226562 2.03125 -10.34375 C 2.28125 -10.757812 2.570312 -11.367188 2.90625 -12.171875 C 3.238281 -12.972656 3.582031 -13.882812 3.9375 -14.90625 C 4.289062 -15.925781 4.613281 -16.960938 4.90625 -18.015625 C 5.207031 -19.078125 5.453125 -20.078125 5.640625 -21.015625 C 5.835938 -21.960938 5.957031 -22.769531 6 -23.4375 C 6.039062 -24.101562 5.960938 -24.535156 5.765625 -24.734375 C 5.585938 -24.929688 5.421875 -25.03125 5.265625 -25.03125 C 5.203125 -25.03125 5.144531 -25.019531 5.09375 -25 C 4.789062 -24.863281 4.445312 -24.441406 4.0625 -23.734375 C 3.6875 -23.023438 3.3125 -22.128906 2.9375 -21.046875 C 2.5625 -19.972656 2.234375 -18.804688 1.953125 -17.546875 C 1.671875 -16.296875 1.476562 -15.054688 1.375 -13.828125 C 1.28125 -12.609375 1.332031 -11.507812 1.53125 -10.53125 Z M 1.53125 -10.53125 "/></g></g><g style="fill:#d2ac67;fill-opacity:1;"><g transform="translate(113.917621, 50.542512)"><path style="stroke:none" d="M 19.0625 -7.9375 C 19.21875 -7.800781 19.296875 -7.625 19.296875 -7.40625 C 19.296875 -7.195312 19.222656 -7.015625 19.078125 -6.859375 C 19.003906 -6.796875 18.707031 -6.519531 18.1875 -6.03125 C 17.664062 -5.539062 16.976562 -4.957031 16.125 -4.28125 C 15.269531 -3.601562 14.296875 -2.929688 13.203125 -2.265625 C 12.109375 -1.597656 10.9375 -1.039062 9.6875 -0.59375 C 8.445312 -0.15625 7.195312 0.0625 5.9375 0.0625 C 4.132812 0.0820312 2.519531 -0.445312 1.09375 -1.53125 C 0.5 -1.957031 0.0976562 -2.460938 -0.109375 -3.046875 C -0.328125 -3.640625 -0.421875 -4.25 -0.390625 -4.875 C -0.367188 -5.507812 -0.273438 -6.097656 -0.109375 -6.640625 C 0.046875 -7.191406 0.195312 -7.644531 0.34375 -8 C 0.488281 -8.351562 0.570312 -8.550781 0.59375 -8.59375 C 0.707031 -8.757812 0.863281 -8.875 1.0625 -8.9375 C 1.257812 -9 1.445312 -8.976562 1.625 -8.875 C 1.8125 -8.78125 1.941406 -8.632812 2.015625 -8.4375 C 2.085938 -8.238281 2.070312 -8.050781 1.96875 -7.875 C 1.96875 -7.851562 1.910156 -7.71875 1.796875 -7.46875 C 1.679688 -7.21875 1.554688 -6.882812 1.421875 -6.46875 C 1.296875 -6.0625 1.207031 -5.625 1.15625 -5.15625 C 1.113281 -4.695312 1.148438 -4.25 1.265625 -3.8125 C 1.378906 -3.382812 1.625 -3.035156 2 -2.765625 C 2.90625 -2.097656 3.859375 -1.695312 4.859375 -1.5625 C 5.867188 -1.425781 6.882812 -1.476562 7.90625 -1.71875 C 8.925781 -1.96875 9.925781 -2.332031 10.90625 -2.8125 C 11.882812 -3.289062 12.796875 -3.816406 13.640625 -4.390625 C 14.484375 -4.972656 15.226562 -5.53125 15.875 -6.0625 C 16.519531 -6.59375 17.023438 -7.03125 17.390625 -7.375 C 17.753906 -7.726562 17.945312 -7.914062 17.96875 -7.9375 C 18.125 -8.09375 18.300781 -8.171875 18.5 -8.171875 C 18.707031 -8.171875 18.894531 -8.09375 19.0625 -7.9375 Z M 0.265625 -10.265625 C -0.128906 -10.265625 -0.375 -10.457031 -0.46875 -10.84375 C -0.570312 -11.238281 -0.445312 -11.535156 -0.09375 -11.734375 C 0.457031 -12.003906 0.945312 -12.367188 1.375 -12.828125 C 1.539062 -12.984375 1.722656 -13.0625 1.921875 -13.0625 C 2.128906 -13.0625 2.3125 -12.988281 2.46875 -12.84375 C 2.625 -12.6875 2.707031 -12.503906 2.71875 -12.296875 C 2.726562 -12.097656 2.65625 -11.921875 2.5 -11.765625 C 1.945312 -11.191406 1.328125 -10.726562 0.640625 -10.375 C 0.523438 -10.300781 0.398438 -10.265625 0.265625 -10.265625 Z M 0.265625 -10.265625 "/></g></g><g style="fill:#d2ac67;fill-opacity:1;"><g transform="translate(131.968109, 50.542512)"><path style="stroke:none" d="M 25.703125 -7.328125 C 25.859375 -7.179688 25.941406 -7 25.953125 -6.78125 C 25.960938 -6.570312 25.890625 -6.390625 25.734375 -6.234375 C 25.691406 -6.171875 25.472656 -5.945312 25.078125 -5.5625 C 24.691406 -5.1875 24.164062 -4.726562 23.5 -4.1875 C 22.832031 -3.644531 22.054688 -3.101562 21.171875 -2.5625 C 20.285156 -2.03125 19.332031 -1.578125 18.3125 -1.203125 C 17.300781 -0.828125 16.25 -0.609375 15.15625 -0.546875 C 14.070312 -0.492188 12.976562 -0.691406 11.875 -1.140625 C 10.351562 -1.910156 9.171875 -3.039062 8.328125 -4.53125 C 8.203125 -4.6875 8.03125 -4.929688 7.8125 -5.265625 C 7.601562 -5.597656 7.3125 -5.753906 6.9375 -5.734375 C 6.757812 -5.734375 6.5 -5.675781 6.15625 -5.5625 C 5.8125 -5.457031 5.367188 -5.242188 4.828125 -4.921875 C 4.296875 -4.597656 3.65625 -4.09375 2.90625 -3.40625 C 2.164062 -2.71875 1.296875 -1.796875 0.296875 -0.640625 C 0.0351562 -0.347656 -0.273438 -0.289062 -0.640625 -0.46875 C -0.992188 -0.644531 -1.125 -0.929688 -1.03125 -1.328125 L 0.4375 -7.796875 C 0.476562 -7.992188 0.59375 -8.148438 0.78125 -8.265625 C 0.96875 -8.378906 1.160156 -8.40625 1.359375 -8.34375 C 1.566406 -8.3125 1.722656 -8.203125 1.828125 -8.015625 C 1.941406 -7.828125 1.976562 -7.632812 1.9375 -7.4375 L 1.265625 -4.53125 C 1.242188 -4.425781 1.28125 -4.347656 1.375 -4.296875 C 1.476562 -4.253906 1.566406 -4.273438 1.640625 -4.359375 C 3.816406 -6.410156 5.648438 -7.390625 7.140625 -7.296875 C 7.773438 -7.253906 8.304688 -7 8.734375 -6.53125 C 9.066406 -6.175781 9.359375 -5.789062 9.609375 -5.375 C 10.273438 -4.164062 11.21875 -3.238281 12.4375 -2.59375 C 13.375 -2.195312 14.320312 -2.035156 15.28125 -2.109375 C 16.25 -2.191406 17.179688 -2.410156 18.078125 -2.765625 C 18.984375 -3.117188 19.828125 -3.546875 20.609375 -4.046875 C 21.398438 -4.546875 22.09375 -5.039062 22.6875 -5.53125 C 23.28125 -6.019531 23.742188 -6.429688 24.078125 -6.765625 C 24.410156 -7.097656 24.585938 -7.273438 24.609375 -7.296875 C 24.742188 -7.453125 24.921875 -7.53125 25.140625 -7.53125 C 25.359375 -7.53125 25.546875 -7.460938 25.703125 -7.328125 Z M 25.703125 -7.328125 "/></g></g><g style="fill:#d2ac67;fill-opacity:1;"><g transform="translate(156.456808, 50.542512)"><path style="stroke:none" d="M 24.671875 -7.5625 C 24.804688 -7.40625 24.863281 -7.21875 24.84375 -7 C 24.820312 -6.78125 24.722656 -6.601562 24.546875 -6.46875 C 24.472656 -6.40625 24.117188 -6.144531 23.484375 -5.6875 C 22.859375 -5.226562 22.015625 -4.679688 20.953125 -4.046875 C 19.898438 -3.410156 18.675781 -2.773438 17.28125 -2.140625 C 15.894531 -1.515625 14.40625 -0.992188 12.8125 -0.578125 C 11.226562 -0.171875 9.59375 0.03125 7.90625 0.03125 C 5.90625 0.0507812 3.984375 -0.3125 2.140625 -1.0625 C 1.128906 -1.46875 0.414062 -1.945312 0 -2.5 C -0.414062 -3.050781 -0.648438 -3.585938 -0.703125 -4.109375 C -0.765625 -4.640625 -0.753906 -5.09375 -0.671875 -5.46875 C -0.492188 -6.195312 -0.148438 -6.898438 0.359375 -7.578125 C 0.867188 -8.253906 1.460938 -8.859375 2.140625 -9.390625 C 2.828125 -9.929688 3.53125 -10.347656 4.25 -10.640625 C 4.96875 -10.941406 5.617188 -11.070312 6.203125 -11.03125 C 6.734375 -11.03125 7.1875 -10.84375 7.5625 -10.46875 C 7.945312 -10.09375 8.160156 -9.632812 8.203125 -9.09375 C 8.222656 -8.769531 8.144531 -8.378906 7.96875 -7.921875 C 7.789062 -7.460938 7.335938 -7 6.609375 -6.53125 C 4.941406 -5.488281 3.117188 -5.023438 1.140625 -5.140625 C 1.046875 -5.160156 0.957031 -5.144531 0.875 -5.09375 C 0.800781 -5.03125 0.773438 -4.953125 0.796875 -4.859375 C 0.773438 -4.679688 0.789062 -4.453125 0.84375 -4.171875 C 0.90625 -3.898438 1.070312 -3.613281 1.34375 -3.3125 C 1.625 -3.019531 2.085938 -2.75 2.734375 -2.5 C 4.066406 -1.925781 5.429688 -1.597656 6.828125 -1.515625 C 8.234375 -1.441406 9.613281 -1.53125 10.96875 -1.78125 C 12.320312 -2.039062 13.617188 -2.398438 14.859375 -2.859375 C 16.109375 -3.328125 17.253906 -3.832031 18.296875 -4.375 C 19.347656 -4.925781 20.265625 -5.445312 21.046875 -5.9375 C 21.835938 -6.425781 22.457031 -6.835938 22.90625 -7.171875 C 23.351562 -7.503906 23.578125 -7.671875 23.578125 -7.671875 C 23.753906 -7.804688 23.953125 -7.863281 24.171875 -7.84375 C 24.367188 -7.832031 24.535156 -7.738281 24.671875 -7.5625 Z M 1.828125 -6.9375 C 1.609375 -6.644531 1.628906 -6.484375 1.890625 -6.453125 C 2.160156 -6.421875 2.539062 -6.476562 3.03125 -6.625 C 3.519531 -6.78125 4.023438 -6.96875 4.546875 -7.1875 C 5.066406 -7.414062 5.484375 -7.628906 5.796875 -7.828125 C 6.398438 -8.234375 6.679688 -8.601562 6.640625 -8.9375 C 6.617188 -9.15625 6.566406 -9.296875 6.484375 -9.359375 C 6.398438 -9.429688 6.273438 -9.476562 6.109375 -9.5 C 5.484375 -9.539062 4.757812 -9.316406 3.9375 -8.828125 C 3.113281 -8.347656 2.410156 -7.71875 1.828125 -6.9375 Z M 1.828125 -6.9375 "/></g></g></g></svg>